<?xml version="1.0" encoding="UTF-8"?>
<svg width="64px" height="64px" viewBox="0 0 64 64" version="1.1" xmlns="http://www.w3.org/2000/svg" xmlns:xlink="http://www.w3.org/1999/xlink">
    <title>状态晶体/blue</title>
    <defs>
        <linearGradient x1="50%" y1="0%" x2="50%" y2="100%" id="linearGradient-1">
            <stop stop-color="#00A6FF" offset="0%"></stop>
            <stop stop-color="#007CFF" offset="89.9556649%"></stop>
            <stop stop-color="#006CE4" offset="91.9978311%"></stop>
            <stop stop-color="#006CE4" offset="100%"></stop>
        </linearGradient>
        <linearGradient x1="50%" y1="100%" x2="50%" y2="3.061617e-15%" id="linearGradient-2">
            <stop stop-color="#006CE5" offset="0%"></stop>
            <stop stop-color="#086ADB" offset="100%"></stop>
        </linearGradient>
        <linearGradient x1="50%" y1="100%" x2="50%" y2="3.061617e-15%" id="linearGradient-3">
            <stop stop-color="#006CE4" offset="0%"></stop>
            <stop stop-color="#1E85FB" offset="100%"></stop>
        </linearGradient>
    </defs>
    <g id="状态晶体/blue" stroke="none" stroke-width="1" fill="none" fill-rule="evenodd">
        <rect fill="#FFFFFF" opacity="0" x="0" y="0" width="64" height="64"></rect>
        <g id="功能/作业状态/黄" transform="translate(2.666667, -0.000000)">
            <path d="M2.80356318,14.0294649 L26.6368965,0.702174407 C28.311171,-0.234058136 30.3554957,-0.234058136 32.0297702,0.702174407 L55.8631035,14.0294649 C57.5949269,14.997878 58.6666667,16.8195965 58.6666667,18.7948968 L58.6666667,45.2051032 C58.6666667,47.1804035 57.5949269,49.002122 55.8631035,49.9705351 L32.0297702,63.2978256 C30.3554957,64.2340581 28.311171,64.2340581 26.6368965,63.2978256 L2.80356318,49.9705351 C1.07173979,49.002122 0,47.1804035 0,45.2051032 L0,18.7948968 C0,16.8195965 1.07173979,14.997878 2.80356318,14.0294649 Z" id="3" fill="url(#linearGradient-1)"></path>
            <path d="M30.9161402,28.528626 L54.7494735,17.4225506 C56.1246692,16.7817243 57.7620558,17.3704823 58.4066787,18.7375784 C58.5779058,19.1007115 58.6666667,19.4968485 58.6666667,19.8978971 L58.6666667,46.8039611 C58.6666667,47.7916112 58.1307968,48.7024705 57.2648851,49.1866771 L33.4315517,62.5139675 C32.1078176,63.2541825 30.4311011,62.787467 29.6865006,61.4715293 C29.4549618,61.0623292 29.3333333,60.6007463 29.3333333,60.1312516 L29.3333333,31.0039725 C29.3333333,29.9435125 29.9502483,28.9787211 30.9161402,28.528626 Z" id="3备份" fill="url(#linearGradient-2)"></path>
            <path d="M27.7505265,28.528626 L3.91719316,17.4225506 C2.54199746,16.7817243 0.904610908,17.3704823 0.259987926,18.7375784 C0.088760828,19.1007115 0,19.4968485 0,19.8978971 L0,46.8039611 C0,47.7916112 0.535869893,48.7024705 1.40178159,49.1866771 L25.2351149,62.5139675 C26.5588491,63.2541825 28.2355656,62.787467 28.9801661,61.4715293 C29.2117049,61.0623292 29.3333333,60.6007463 29.3333333,60.1312516 L29.3333333,31.0039725 C29.3333333,29.9435125 28.7164183,28.9787211 27.7505265,28.528626 Z" id="3备份-2" fill="url(#linearGradient-3)"></path>
        </g>
    </g>
</svg>