<?xml version="1.0" encoding="UTF-8"?>
<svg width="24px" height="24px" viewBox="0 0 24 24" version="1.1" xmlns="http://www.w3.org/2000/svg" xmlns:xlink="http://www.w3.org/1999/xlink">
    <title>步骤状态点/失败_24</title>
    <g id="步骤状态点/失败_24" stroke="none" stroke-width="1" fill="none" fill-rule="evenodd">
        <rect fill="#FFFFFF" opacity="0" x="0" y="0" width="24" height="24"></rect>
        <g id="编组-5备份-4">
            <circle id="椭圆形备份-11" stroke="#EBEFF6" stroke-width="2" fill="#E4EAF1" cx="12" cy="12" r="11"></circle>
            <g id="编组" transform="translate(1.500000, 1.500000)">
                <path d="M10.5,0 C4.7015625,0 0,4.7015625 0,10.5 C0,16.2984375 4.7015625,21 10.5,21 C16.2984375,21 21,16.2984375 21,10.5 C21,4.7015625 16.2984375,0 10.5,0 Z" id="路径" fill="#E32020"></path>
                <path d="M10.5,16 C9.94791667,16 9.5,15.5072917 9.5,14.9 C9.5,14.2927083 9.94791667,13.8 10.5,13.8 C11.0520833,13.8 11.5,14.2927083 11.5,14.9 C11.5,15.5072917 11.0520833,16 10.5,16 Z M10.3333333,5 L10.6666667,5 C10.942809,5 11.1666667,5.22385763 11.1666667,5.5 L11.1666667,11.8333333 C11.1666667,12.1094757 10.942809,12.3333333 10.6666667,12.3333333 L10.3333333,12.3333333 C10.057191,12.3333333 9.83333333,12.1094757 9.83333333,11.8333333 L9.83333333,5.5 C9.83333333,5.22385763 10.057191,5 10.3333333,5 Z" id="形状" fill="#FFFFFF"></path>
            </g>
        </g>
    </g>
</svg>