<?xml version="1.0" encoding="UTF-8"?>
<svg width="16px" height="16px" viewBox="0 0 16 16" version="1.1" xmlns="http://www.w3.org/2000/svg" xmlns:xlink="http://www.w3.org/1999/xlink">
    <title>步骤状态点/错误_16</title>
    <defs>
        <path d="M0.815888362,0.0708373321 L0.878865392,0.122421925 L3.074,2.318 L5.2210953,0.171758611 C5.39709027,-0.00423636085 5.69805363,0.0113827699 5.89331577,0.206644916 C6.06688212,0.380211268 6.09850832,0.637294627 5.97978667,0.815888362 L5.92820208,0.878865392 L3.781,3.025 L5.97753876,5.2210953 C6.15353373,5.39709027 6.1379146,5.69805363 5.94265246,5.89331577 C5.76908611,6.06688212 5.51200275,6.09850832 5.33340901,5.97978667 L5.27043198,5.92820208 L3.074,3.732 L0.829528707,5.97753876 C0.653533735,6.15353373 0.352570376,6.1379146 0.15730823,5.94265246 C-0.0162581217,5.76908611 -0.0478843134,5.51200275 0.0708373321,5.33340901 L0.122421925,5.27043198 L2.367,3.025 L0.171758611,0.829528707 C-0.00423636085,0.653533735 0.0113827699,0.352570376 0.206644916,0.15730823 C0.380211268,-0.0162581217 0.637294627,-0.0478843134 0.815888362,0.0708373321 Z" id="path-1"></path>
    </defs>
    <g id="步骤状态点/错误_16" stroke="none" stroke-width="1" fill="none" fill-rule="evenodd">
        <rect fill="#FFFFFF" opacity="0" x="0" y="0" width="16" height="16"></rect>
        <g id="编组">
            <circle id="椭圆形备份-8" stroke="#E42121" stroke-width="1.8" fill="#FFFFFF" cx="8" cy="8" r="6.1"></circle>
            <g id="1-icon/16/01" transform="translate(4.974688, 4.974688)">
                <mask id="mask-2" fill="white">
                    <use xlink:href="#path-1"></use>
                </mask>
                <use id="形状结合" fill="#E42121" xlink:href="#path-1"></use>
            </g>
        </g>
    </g>
</svg>