<?xml version="1.0" encoding="UTF-8"?>
<svg width="24px" height="24px" viewBox="0 0 24 24" version="1.1" xmlns="http://www.w3.org/2000/svg" xmlns:xlink="http://www.w3.org/1999/xlink">
    <title>步骤状态点/错误_24</title>
    <defs>
        <path d="M1.33753052,0.116127522 L1.44077222,0.200692974 L5.04,3.8 L8.55922778,0.281573308 C8.84774598,-0.00694489861 9.34113172,0.0186603987 9.66123566,0.33876434 C9.9457725,0.623301177 9.99761905,1.04475202 9.80299214,1.33753052 L9.71842669,1.44077222 L6.199,4.959 L9.79930703,8.55922778 C10.0878252,8.84774598 10.0622199,9.34113172 9.74211599,9.66123566 C9.45757916,9.9457725 9.03612831,9.99761905 8.74334981,9.80299214 L8.64010811,9.71842669 L5.04,6.118 L1.35989189,9.79930703 C1.07137368,10.0878252 0.577987948,10.0622199 0.257884007,9.74211599 C-0.0266528302,9.45757916 -0.0784993804,9.03612831 0.116127522,8.74334981 L0.200692974,8.64010811 L3.881,4.959 L0.281573308,1.35989189 C-0.00694489861,1.07137368 0.0186603987,0.577987948 0.33876434,0.257884007 C0.623301177,-0.0266528302 1.04475202,-0.0784993804 1.33753052,0.116127522 Z" id="path-1"></path>
    </defs>
    <g id="步骤状态点/错误_24" stroke="none" stroke-width="1" fill="none" fill-rule="evenodd">
        <rect fill="#FFFFFF" opacity="0" x="0" y="0" width="24" height="24"></rect>
        <g id="编组" transform="translate(1.500000, 1.500000)">
            <circle id="椭圆形备份-8" stroke="#E42121" stroke-width="1.8" fill="#FFFFFF" cx="10.5" cy="10.5" r="9.6"></circle>
            <g id="1-icon/16/01" transform="translate(5.500000, 5.500000)">
                <mask id="mask-2" fill="white">
                    <use xlink:href="#path-1"></use>
                </mask>
                <use id="形状结合" fill="#E42121" xlink:href="#path-1"></use>
            </g>
        </g>
    </g>
</svg>