<?xml version="1.0" encoding="UTF-8"?>
<svg width="24px" height="24px" viewBox="0 0 24 24" version="1.1" xmlns="http://www.w3.org/2000/svg" xmlns:xlink="http://www.w3.org/1999/xlink">
    <title>步骤状态点/已完成_24</title>
    <g id="步骤状态点/已完成_24" stroke="none" stroke-width="1" fill="none" fill-rule="evenodd">
        <rect fill="#FFFFFF" opacity="0" x="0" y="0" width="24" height="24"></rect>
        <g id="编组-5备份-2">
            <circle id="椭圆形备份-11" stroke="#EBEFF6" stroke-width="2" fill="#E4EAF1" cx="12" cy="12" r="11"></circle>
            <g id="1-icon/01公共/01占位/24">
                <path d="M12,1.5 C6.2015625,1.5 1.5,6.2015625 1.5,12 C1.5,17.7984375 6.2015625,22.5 12,22.5 C17.7984375,22.5 22.5,17.7984375 22.5,12 C22.5,6.2015625 17.7984375,1.5 12,1.5 Z" id="路径" fill="#24AB36"></path>
                <path d="M7.28363488,11.9260107 C7.55137047,11.6731255 7.95789804,11.6540212 8.24652632,11.8625702 L8.34873404,11.9514354 L10.7449587,14.4451296 L15.5908904,7.95274082 C15.8108039,7.65801986 16.2079734,7.56996565 16.528463,7.7262579 L16.6445632,7.79638515 C16.9419083,8.01436244 17.0307486,8.40801769 16.8730611,8.72567161 L16.802298,8.84073769 L11.4249455,16.0472932 C11.1720534,16.3862111 10.6943912,16.4451166 10.3671506,16.2008261 L10.2738663,16.1184199 L7.25798316,12.9816856 C7.00284051,12.716319 6.98356563,12.3133885 7.1939764,12.027314 L7.28363488,11.9260107 Z" id="路径" fill="#FFFFFF"></path>
            </g>
        </g>
    </g>
</svg>