<?xml version="1.0" encoding="UTF-8"?>
<svg width="96px" height="99px" viewBox="0 0 96 99" version="1.1" xmlns="http://www.w3.org/2000/svg" xmlns:xlink="http://www.w3.org/1999/xlink">
    <title>插画/空页面/带文字</title>
    <g id="插画/空页面/带文字" stroke="none" stroke-width="1" fill="none" fill-rule="evenodd">
        <rect fill="#FFFFFF" opacity="0" x="0" y="0" width="96" height="99"></rect>
        <g id="编组">
            <g id="编组-14" transform="translate(4.000000, 5.000000)">
                <ellipse id="椭圆形备份-3" fill="#C3CEDF" cx="44" cy="61" rx="44" ry="9"></ellipse>
                <path d="M9,34.5988493 L79,34.5988493 L79,57.5988493 C79,59.8079883 77.209139,61.5988493 75,61.5988493 L13,61.5988493 C10.790861,61.5988493 9,59.8079883 9,57.5988493 L9,34.5988493 L9,34.5988493 Z M9,34.5988493 L79,34.5988493 L68.3650475,21 L20.4295724,21 L9,34.5988493 Z" id="形状结合备份-2" fill="#C3CEDF" opacity="0.386468932"></path>
                <path d="M25,0 L51.7906187,0 C53.2578981,2.03616108e-16 54.6743176,0.537657137 55.7720152,1.51129397 L64.9813965,9.67983929 C66.2652103,10.8185576 67,12.4524867 67,14.1685453 L67,52 C67,54.209139 65.209139,56 63,56 L25,56 C22.790861,56 21,54.209139 21,52 L21,4 C21,1.790861 22.790861,4.05812251e-16 25,0 Z" id="矩形备份-2" stroke="#B3BFD3" stroke-width="2" stroke-dasharray="4,2"></path>
                <path d="M11.3414634,35 L26.3985177,35 C27.3371315,35 28.1850366,35.5605095 28.5527838,36.4240821 L29.2605094,38.0860183 C30.057426,39.9573998 31.8948557,41.1720365 33.928853,41.1720365 L54.8918899,41.1720365 C56.8988591,41.1720365 58.7034853,39.9497326 59.4481291,38.0860183 C60.192773,36.222304 61.9973991,35 64.0043683,35 L76.6585366,35 C77.9516911,35 79,36.0483089 79,37.3414634 L79,58 C79,60.209139 77.209139,62 75,62 L13,62 C10.790861,62 9,60.209139 9,58 L9,37.3414634 C9,36.0483089 10.0483089,35 11.3414634,35 Z" id="矩形备份-3" fill="#B3BFD3"></path>
                <path d="M42.8040853,24 C42.910151,24.5792799 43.4143706,25 44.0025533,25 C44.590736,25 45.0949556,24.5792799 45.2010213,24 L46,13 C45.9976869,11.8963913 45.1047531,11.0023161 44.0025533,11 C43.4418594,11.0138446 42.9112289,11.2567545 42.5339507,11.672291 C42.1566725,12.0878275 41.9655923,12.6398142 42.0051066,13.2 L42.8040853,24 Z M43.9983085,27.5034414 C43.1900918,27.5034414 42.4614573,27.9902994 42.1521661,28.7369943 C41.842875,29.4836892 42.0138368,30.3431722 42.5853323,30.9146677 C43.1568278,31.4861632 44.0163108,31.657125 44.7630057,31.3478339 C45.5097006,31.0385427 45.9965586,30.3099082 45.9965586,29.5016915 C46.0291466,28.9623909 45.8291046,28.4349728 45.4470659,28.0529341 C45.0650272,27.6708954 44.5376091,27.4708534 43.9983085,27.5034414 Z" id="形状备份" fill="#B3BFD3" fill-rule="nonzero"></path>
            </g>
            <text id="暂无数据" font-family="HarmonyOS_Sans_SC, HarmonyOS Sans SC" font-size="12" font-weight="normal" line-spacing="16" fill="#8D98AA">
                <tspan x="24" y="97">暂无数据</tspan>
            </text>
        </g>
    </g>
</svg>