<?xml version="1.0" encoding="UTF-8"?>
<svg width="16px" height="16px" viewBox="0 0 16 16" version="1.1" xmlns="http://www.w3.org/2000/svg" xmlns:xlink="http://www.w3.org/1999/xlink">
    <title>icon/设置</title>
    <defs>
        <path d="M8.99916512,1 C9.55144987,1 9.99916512,1.44771525 9.99916509,1.99981272 L9.99916509,1.99981272 L9.999,2.876 L10.2143259,2.964441 C10.5817952,3.12630433 10.9300982,3.32801071 11.2532381,3.56550119 L11.2532381,3.56550119 L11.435,3.707 L12.1953175,3.26794919 C12.6394464,3.01153127 13.1985106,3.13451622 13.497206,3.5363416 L13.497206,3.5363416 L13.561343,3.6339746 L14.561343,5.3660254 C14.8374853,5.84431803 14.6736102,6.45590843 14.1954281,6.73198696 L14.1954281,6.73198696 L13.435,7.17 L13.4664455,7.39699556 C13.47732,7.49661578 13.4854999,7.59672925 13.4909612,7.69725649 L13.4909612,7.69725649 L13.4991651,8 C13.4991651,8.20255053 13.4881945,8.403764 13.4664455,8.60300444 L13.4664455,8.60300444 L13.435,8.829 L14.1953175,9.26794919 C14.6394464,9.52436711 14.8124704,10.0700234 14.6138271,10.5296139 L14.6138271,10.5296139 L14.561343,10.6339746 L13.561343,12.3660254 C13.2852006,12.844318 12.6736102,13.0081932 12.1951968,12.7319811 L12.1951968,12.7319811 L11.435,12.292 L11.2532381,12.4344988 C10.9300982,12.6719893 10.5817952,12.8736957 10.2143259,13.035559 L10.2143259,13.035559 L9.999,13.123 L9.99916512,14 C9.99916512,14.5128358 9.61312493,14.9355072 9.11578625,14.9932723 L9.11578625,14.9932723 L8.99916512,15 L6.99916512,15 C6.44688037,15 5.99916512,14.5522847 5.99916514,14.0001082 L5.99916514,14.0001082 L5.998,13.123 L5.78449599,13.0357755 C5.41720065,12.8740319 5.06904797,12.6724844 4.74602559,12.4351846 L4.74602559,12.4351846 L4.563,12.293 L3.8030127,12.7320508 C3.32472008,13.0081932 2.71312967,12.844318 2.4369873,12.3660254 L2.4369873,12.3660254 L1.4369873,10.6339746 C1.16084492,10.155682 1.32472008,9.54409157 1.80290215,9.26801304 L1.80290215,9.26801304 L2.562,8.829 L2.53188474,8.60300444 C2.52101025,8.50338422 2.51283034,8.40327075 2.50736906,8.30274351 L2.50736906,8.30274351 L2.49916512,8 C2.49916512,7.79744947 2.51013575,7.596236 2.53188474,7.39699556 L2.53188474,7.39699556 L2.562,7.17 L1.8030127,6.73205081 C1.35888384,6.47563289 1.18585983,5.92997662 1.38450312,5.47038613 L1.38450312,5.47038613 L1.4369873,5.3660254 L2.4369873,3.6339746 C2.71312967,3.15568197 3.32472008,2.99180682 3.80268406,3.26775962 L3.80268406,3.26775962 L4.563,3.706 L4.74602559,3.56481536 C5.06904797,3.32751564 5.41720065,3.1259681 5.78449599,2.96422448 L5.78449599,2.96422448 L5.998,2.876 L5.99916512,2 C5.99916512,1.48716416 6.38520531,1.06449284 6.882544,1.00672773 L6.882544,1.00672773 L6.99916512,1 Z M8.99916512,2 L6.99916511,2 L6.99889915,3.22909289 C6.99885189,3.44746918 6.85708883,3.64055286 6.64875075,3.70600093 C6.01950881,3.90367326 5.44257619,4.23838115 4.95727651,4.68380144 C4.7964987,4.83136736 4.55858819,4.85761186 4.36951099,4.7486393 L4.36951099,4.7486393 L3.3030127,4.1339746 L2.3030127,5.8660254 L3.36755499,6.48100163 C3.55644008,6.5901188 3.65278495,6.80909501 3.60561429,7.02207168 C3.53508833,7.34049812 3.49916512,7.66774481 3.49916512,8 C3.49916512,8.33225519 3.53508833,8.65950188 3.60561429,8.97792832 C3.65278495,9.19090499 3.55644008,9.4098812 3.36755499,9.51899837 L3.36755499,9.51899837 L2.3030127,10.1339746 L3.3030127,11.8660254 L4.36951099,11.2513607 C4.55858819,11.1423881 4.7964987,11.1686326 4.95727651,11.3161986 C5.44257619,11.7616188 6.01950881,12.0963267 6.64875075,12.2939991 C6.85708883,12.3594471 6.99885189,12.5525308 6.99889915,12.7709071 L6.99889915,12.7709071 L6.99916512,14 L8.99916512,14 L8.99962552,12.770767 C8.99970731,12.5524274 9.14145398,12.3593898 9.34975429,12.2939442 C9.97931594,12.096143 10.5565066,11.7611659 11.0419416,11.3153835 C11.2028573,11.1676121 11.4410821,11.1414259 11.6302544,11.2507149 L11.6302544,11.2507149 L12.6953175,11.8660254 L13.6953175,10.1339746 L12.6307753,9.51899837 C12.4418902,9.4098812 12.3455453,9.19090499 12.392716,8.97792832 C12.4632419,8.65950188 12.4991651,8.33225519 12.4991651,8 C12.4991651,7.66774481 12.4632419,7.34049812 12.392716,7.02207168 C12.3455453,6.80909501 12.4418902,6.5901188 12.6307753,6.48100163 L12.6307753,6.48100163 L13.6953175,5.8660254 L12.6953175,4.1339746 L11.6302544,4.74928506 C11.4410821,4.85857409 11.2028573,4.83238794 11.0419416,4.68461653 C10.5565066,4.23883411 9.97931594,3.90385702 9.34975429,3.70605585 C9.14145398,3.64061024 8.99970731,3.44757255 8.99962552,3.22923304 L8.99962552,3.22923304 L8.99916512,2 Z M8,5 C9.65685425,5 11,6.34314575 11,8 C11,9.65685425 9.65685425,11 8,11 C6.34314575,11 5,9.65685425 5,8 C5,6.34314575 6.34314575,5 8,5 Z M8,6 C6.8954305,6 6,6.8954305 6,8 C6,9.1045695 6.8954305,10 8,10 C9.1045695,10 10,9.1045695 10,8 C10,6.8954305 9.1045695,6 8,6 Z" id="path-1"></path>
    </defs>
    <g id="icon/设置" stroke="none" stroke-width="1" fill="none" fill-rule="evenodd">
        <rect fill="#FFFFFF" opacity="0" x="0" y="0" width="16" height="16"></rect>
        <g id="编组">
            <mask id="mask-2" fill="white">
                <use xlink:href="#path-1"></use>
            </mask>
            <use id="蒙版" fill="#000000" fill-rule="nonzero" xlink:href="#path-1"></use>
            <g mask="url(#mask-2)" fill="#8D98AA" id="矩形">
                <g>
                    <rect x="0" y="0" width="16" height="16"></rect>
                </g>
            </g>
        </g>
    </g>
</svg>