<?xml version="1.0" encoding="UTF-8"?>
<svg width="16px" height="16px" viewBox="0 0 16 16" version="1.1" xmlns="http://www.w3.org/2000/svg" xmlns:xlink="http://www.w3.org/1999/xlink">
    <title>icon/密码/隐藏/按下</title>
    <defs>
        <path d="M14.8481382,5.14111308 C15.0463459,5.33338447 15.0511583,5.64993038 14.8588869,5.84813816 C14.1716466,6.55659699 13.4542723,7.14653906 12.7076178,7.6170361 L14.2538078,9.16261821 L14.3116632,9.2318661 C14.4466593,9.42673424 14.4273741,9.69615864 14.2538078,9.86972499 C14.0585456,10.0649871 13.7419631,10.0649871 13.546701,9.86972499 L13.546701,9.86972499 L11.7996029,8.12328014 C11.2718574,8.3803328 10.7305138,8.5810863 10.1758472,8.72524164 L10.741782,10.8365163 L10.7572623,10.9254145 C10.7767382,11.1616732 10.6253246,11.385359 10.3882286,11.4488887 C10.1214955,11.5203596 9.84732704,11.3620684 9.77585613,11.0953353 L9.77585613,11.0953353 L9.19234099,8.91958017 C8.80106437,8.97316093 8.40358761,8.99999964 7.99999964,8.99999964 C7.59641178,8.99999964 7.19893512,8.97316093 6.80765858,8.91958017 L6.22414387,11.0953353 C6.15267296,11.3620684 5.87850448,11.5203596 5.61177143,11.4488887 C5.37467539,11.385359 5.22326176,11.1616732 5.2427377,10.9254145 L5.25821804,10.8365163 L5.8241525,8.72524164 C5.26948601,8.5810863 4.7281425,8.3803328 4.20039702,8.12328014 L2.45329903,9.86972499 C2.25803688,10.0649871 1.94145439,10.0649871 1.74619225,9.86972499 C1.5726259,9.69615864 1.55334075,9.42673424 1.6883368,9.2318661 L1.74619225,9.16261821 L3.29238216,7.6170361 C2.54572771,7.14653906 1.82835336,6.55659699 1.14111308,5.84813816 C0.948841681,5.64993038 0.953654069,5.33338447 1.15186184,5.14111308 C1.35006962,4.94884168 1.66661553,4.95365407 1.85888692,5.15186184 C3.70851979,7.05860214 5.74821516,7.99999964 7.99999964,7.99999964 C10.2517848,7.99999964 12.2914802,7.05860214 14.1411131,5.15186184 C14.3333845,4.95365407 14.6499304,4.94884168 14.8481382,5.14111308 Z" id="path-1"></path>
    </defs>
    <g id="icon/密码/隐藏/按下" stroke="none" stroke-width="1" fill="none" fill-rule="evenodd">
        <rect fill="#FFFFFF" opacity="0" x="0" y="0" width="16" height="16"></rect>
        <g id="1-icon/01公共/invisible">
            <mask id="mask-2" fill="white">
                <use xlink:href="#path-1"></use>
            </mask>
            <use id="形状结合" fill="#000000" fill-rule="nonzero" xlink:href="#path-1"></use>
            <g id="编组" mask="url(#mask-2)" fill="#0077FF">
                <g id="矩形">
                    <rect x="0" y="0" width="16" height="16"></rect>
                </g>
            </g>
        </g>
    </g>
</svg>