<?xml version="1.0" encoding="UTF-8"?>
<svg width="782px" height="168px" viewBox="0 0 782 168" version="1.1" xmlns="http://www.w3.org/2000/svg" xmlns:xlink="http://www.w3.org/1999/xlink">
    <title>画板</title>
    <defs>
        <polygon id="path-1" points="0 0 168.007812 0 168.007812 125.236364 0 125.236364"></polygon>
        <polygon id="path-3" points="0 0 64.1484375 0 64.1484375 91.6363636 0 91.6363636"></polygon>
        <polygon id="path-5" points="0 168 782 168 782 0 0 0"></polygon>
        <polygon id="path-7" points="0 168 782 168 782 0 0 0"></polygon>
        <polygon id="path-9" points="0 168 782 168 782 0 0 0"></polygon>
        <polygon id="path-11" points="0 168 782 168 782 0 0 0"></polygon>
    </defs>
    <g id="画板" stroke="none" stroke-width="1" fill="none" fill-rule="evenodd">
        <rect fill="#FFFFFF" opacity="0" x="0" y="0" width="782" height="168"></rect>
        <g id="download备份">
            <g id="Fill-1-Clipped">
                <mask id="mask-2" fill="white">
                    <use xlink:href="#path-1"></use>
                </mask>
                <g id="path-1"></g>
                <path d="M114.037613,0.735881719 C112.116943,0.216713431 109.999578,-0.0153390631 107.808933,-0.00103516644 C105.629859,0.0161256837 103.369793,0.279642919 101.156008,0.76734646 C98.9383657,1.25111691 96.759292,1.95907367 94.7422018,2.85975199 C92.7135422,3.76436338 90.835296,4.86956256 89.2424506,6.15175092 C88.3862482,6.84004219 87.6534619,7.54406588 87.0402358,8.25988878 C86.4270097,8.97571174 85.9333431,9.69546778 85.5630933,10.4152238 C85.1928441,11.1428461 84.9460105,11.8626021 84.8187371,12.5666257 C84.6914642,13.2785156 84.6914642,13.9746731 84.8148804,14.6432989 L84.7724559,14.6314996 C84.8804455,15.2883262 84.8727322,15.9726843 84.7570293,16.6727749 C84.6336125,17.3767986 84.3983495,18.0965546 84.0396703,18.8202437 C83.6809905,19.551799 83.1988945,20.2833544 82.597239,21.0149097 C81.9878695,21.746465 81.2589405,22.4740872 80.3988808,23.1859771 C79.5388217,23.8978669 78.5900564,24.5625597 77.5718699,25.1721891 C76.5536828,25.7818185 75.466074,26.3363846 74.3321847,26.8319544 C73.1905808,27.3314572 72.0065531,27.7680305 70.7916714,28.1416744 C69.5767892,28.5153182 68.3349097,28.8260325 67.0853169,29.0659513 L67.1277414,29.0816836 C65.8434374,29.3216023 64.5591334,29.6401828 63.2902567,30.029559 C62.0175233,30.4228684 60.7640738,30.8869733 59.5414783,31.4258071 C58.3150259,31.9607078 57.1232845,32.5742703 55.9855378,33.2507623 C54.8439344,33.9311874 53.7563258,34.6824082 52.7381389,35.5004915 C51.704525,36.3343073 50.7981845,37.1917216 50.0191173,38.0648682 C49.2361934,38.941948 48.5843996,39.830827 48.0637358,40.7236392 C47.5430721,41.6203844 47.1535385,42.5210627 46.8989918,43.4020756 C46.6444451,44.2909546 46.5287421,45.1680343 46.5480259,46.0175824 C46.5248853,46.8277996 46.3821849,47.6694815 46.1199246,48.5190297 C45.8538076,49.380377 45.4681308,50.2495906 44.9590374,51.1266704 C44.449944,52.0037502 43.8135772,52.884763 43.0537938,53.7579096 C42.2901538,54.6349894 41.4030971,55.5002699 40.3849102,56.3419518 C39.3435828,57.2032992 38.2174064,58.0017171 37.0333786,58.725406 C35.845494,59.4530285 34.5920443,60.1098552 33.3000269,60.6919528 C32.0080096,61.2740504 30.6735677,61.7774865 29.3236989,62.1983276 C27.9699732,62.6231017 26.6008205,62.9652808 25.2393813,63.2209314 L25.343514,63.2759949 C23.9357936,63.5237798 22.5087894,63.8698918 21.0817851,64.3143315 C19.6547808,64.7548377 18.2277766,65.2976046 16.8200562,65.9308328 C15.4161925,66.564061 14.0277559,67.2916828 12.6817438,68.1097666 C11.3318749,68.9278497 10.0244305,69.8403271 8.77869433,70.8432659 C6.44534957,72.7193513 4.55167633,74.7291622 3.1323856,76.7743704 C1.69381105,78.8431772 0.733475749,80.9473824 0.286090631,82.9650592 C-0.165151255,85.0142003 -0.0880158897,86.9768141 0.556064409,88.7309732 C1.21171501,90.5047986 2.44973763,92.0623035 4.30484316,93.2618965 C5.28831906,93.8990576 6.3913548,94.3985608 7.59080973,94.7722042 C8.79797818,95.1458483 10.1015658,95.3936331 11.4745754,95.5116259 C12.8552984,95.6296187 14.3015865,95.6217523 15.7941558,95.4958937 C17.2867251,95.3661017 18.8217189,95.1143833 20.3682829,94.7446728 L20.2255825,94.8744648 C21.7567195,94.5047543 23.2647159,94.249103 24.7264311,94.1075117 C26.1958598,93.9659203 27.6190073,93.9383889 28.9843032,94.036716 C30.3495992,94.1350431 31.6570436,94.3552965 32.8796392,94.705342 C34.1060915,95.0553869 35.2554084,95.5391574 36.2967358,96.1605863 C37.3457768,96.7859481 38.2405471,97.5253698 38.9849033,98.3591851 C39.7331164,99.1969339 40.3309155,100.13301 40.7783006,101.151681 C41.2295424,102.178219 41.5265136,103.287351 41.6730708,104.463346 C41.8234848,105.643274 41.819628,106.893998 41.6615005,108.195851 L41.7964874,108.069992 C41.6075057,109.422976 41.5920787,110.760228 41.7463494,112.054215 C41.9044769,113.360003 42.236159,114.622525 42.7529659,115.818186 C43.2697729,117.025645 43.9755615,118.162309 44.866475,119.204579 C45.765102,120.254715 46.8527106,121.210456 48.1331576,122.040339 C50.5590649,123.613576 53.4323572,124.592916 56.5447692,125.005891 C59.6803217,125.426732 63.039567,125.265475 66.4103824,124.569318 C69.7850549,123.877093 73.1442997,122.646035 76.2798526,120.931206 C79.3999777,119.224244 82.2732703,117.053177 84.6953209,114.469135 C87.086517,111.924423 88.7989225,109.222388 89.8556768,106.540019 C90.8970044,103.896981 91.2981081,101.273607 91.0859857,98.8154241 C90.8815771,96.3965719 90.0793692,94.1429095 88.7102162,92.1802963 C87.3603478,90.2491474 85.4512471,88.6051147 83.0099132,87.3661903 C81.7217526,86.7132965 80.3410297,86.209861 78.8985983,85.8440833 C77.4638803,85.4783056 75.9635973,85.2541193 74.4286036,85.1597251 C72.8974667,85.0653309 71.3277619,85.1007287 69.7426305,85.2580522 C68.1574984,85.4153758 66.5569397,85.6985585 64.967951,86.0958011 L65.0875112,85.9817412 C63.540947,86.3514523 62.00981,86.6110365 60.5095269,86.7604936 C59.0131011,86.9060184 57.5513858,86.9374828 56.1513789,86.8509549 C54.7552287,86.7604936 53.420787,86.555973 52.1673372,86.2255931 C50.9216011,85.8952133 49.7568571,85.4468407 48.7039593,84.8726089 C47.7976188,84.3731063 47.0069813,83.8067409 46.3281901,83.1735127 C45.6609692,82.5481509 45.1017378,81.8598598 44.6582094,81.1204381 C44.2146811,80.3888828 43.8868558,79.6061975 43.6593065,78.7881143 C43.4394707,77.973964 43.3276244,77.1165495 43.3160541,76.23947 C43.3931894,75.9523538 43.4626113,75.6652382 43.5243196,75.3781226 C43.5821711,75.0949399 43.6323091,74.8078237 43.6708768,74.5285745 C43.7133012,74.2493247 43.7402986,73.9700749 43.7595824,73.6947585 C43.7788663,73.4194422 43.7865798,73.1480588 43.7865798,72.8766754 L43.9369938,72.9553368 C43.9562776,71.9484652 44.1105484,70.9297943 44.3959492,69.9071899 C44.6774933,68.8963848 45.0901675,67.8816468 45.6339718,66.8747751 C46.1739194,65.8797028 46.8449971,64.8924962 47.6394913,63.9288882 C48.4301288,62.9731466 49.3518964,62.0410035 50.3970806,61.1403254 C51.4384081,60.2475131 52.5607276,59.4294299 53.7370419,58.6860753 C54.9133563,57.9466536 56.1513789,57.2858942 57.4279691,56.7037964 C58.7007027,56.1256317 60.0197176,55.6182627 61.3618727,55.1974217 C62.7040284,54.7765808 64.0731808,54.4344017 65.4461904,54.1748176 L65.4346198,54.1708844 C65.6621695,54.1276204 65.8858619,54.0804233 66.1095543,54.0371593 C66.337104,53.9899622 66.5607964,53.938832 66.7883455,53.8916349 C67.0120385,53.8405046 67.2357309,53.7893744 67.4594233,53.7343111 C67.6831158,53.6792478 67.9106654,53.6241845 68.1343578,53.5651881 C69.4340885,53.2898716 70.7183924,53.0932169 71.9795558,52.9791572 C73.2407192,52.8611644 74.4787415,52.8296997 75.6781965,52.8808299 C76.8815081,52.9319601 78.0423953,53.0696184 79.1570013,53.2977378 C80.2716073,53.5297903 81.3322189,53.8523039 82.3234081,54.2770779 C83.3878763,54.7293837 84.3212144,55.2682174 85.1272791,55.8857131 C85.941057,56.5071417 86.6275615,57.2072323 87.1790793,57.9781186 C87.7383109,58.7490046 88.1664124,59.5906869 88.4633832,60.4874321 C88.7603546,61.3920432 88.9223387,62.3517183 88.9531932,63.3507235 L89.0573254,63.2523964 C89.0650394,64.2946659 89.23088,65.3133374 89.550992,66.2966104 C89.8749607,67.283817 90.3532,68.2356251 90.9934234,69.1284375 C91.6336467,70.0291156 92.4358547,70.8668644 93.39619,71.6298847 C94.3680953,72.3968378 95.4942719,73.0851289 96.7862892,73.6750929 C99.2237671,74.7881586 101.98907,75.437119 104.900929,75.649506 C107.832073,75.8697588 110.894348,75.6416396 113.891057,75.0123449 C116.895479,74.3830496 119.822766,73.3447131 122.483936,71.9523981 C125.129679,70.5679495 127.501591,68.8295226 129.406835,66.7961131 C131.296652,64.7823698 132.546244,62.6742317 133.198038,60.5975586 C133.838262,58.544484 133.892257,56.5268072 133.402447,54.6507218 C132.920351,52.798235 131.909878,51.0873395 130.405738,49.6202958 C128.920882,48.1729175 126.957788,46.9575917 124.547307,46.0765788 C123.270717,45.6124739 121.924705,45.2584955 120.543982,45.0185768 C119.170972,44.7786581 117.751681,44.6488661 116.316964,44.6174013 C114.882246,44.5859366 113.432101,44.6606653 111.978099,44.8297884 C110.527955,44.9989114 109.077809,45.2624286 107.654662,45.6203401 L107.751082,45.5259459 C106.358788,45.8641918 104.966495,46.1119767 103.589628,46.2732335 C102.216619,46.4305572 100.859036,46.5013529 99.5438784,46.4738213 C98.2325772,46.4502227 96.9598438,46.3282968 95.7488189,46.1119767 C94.5455066,45.8917235 93.4000467,45.577076 92.3432924,45.1601682 C91.3713865,44.7825913 90.5113274,44.3302855 89.7669711,43.8229165 C89.0226149,43.3194806 88.3939615,42.7570483 87.869441,42.1434858 C87.3526339,41.5417225 86.9438169,40.884896 86.6391321,40.2005378 C86.3421607,39.5161796 86.1454655,38.7964235 86.0567599,38.0530689 C86.0721872,37.8918122 86.0760438,37.7266223 86.0799005,37.5692985 C86.0799005,37.4080417 86.0760438,37.2507179 86.0683305,37.0933942 C86.0606166,36.9360705 86.0451899,36.7787468 86.025906,36.6253561 C86.0066221,36.4680324 85.9873382,36.3146418 85.9603409,36.1651843 L86.0451899,36.196649 C85.9256298,35.4060973 85.9256298,34.5998132 86.0567599,33.789596 C86.1801767,32.983312 86.4308664,32.1730948 86.8011162,31.3668107 C87.1752226,30.5644597 87.6650325,29.7699749 88.2821153,28.9872894 C88.8953414,28.208537 89.6319843,27.4455169 90.4959001,26.7060954 C91.3521026,25.970607 92.293154,25.2901819 93.3036277,24.6687532 C94.3102442,24.0512576 95.3862824,23.4927583 96.5086018,22.9971886 C97.6309217,22.4976858 98.8033789,22.0611125 100.010548,21.6914017 C101.213859,21.3177579 102.459596,21.0109766 103.716902,20.7671248 L103.632053,20.7395932 C103.851889,20.7002623 104.067868,20.6569982 104.283847,20.6137342 C104.499826,20.5704702 104.715805,20.5232731 104.931784,20.476076 C105.143906,20.4288788 105.359885,20.3777486 105.572007,20.3266184 C105.787986,20.2754882 106.000109,20.2204249 106.212231,20.1614285 C107.392402,19.9097106 108.57643,19.716989 109.745031,19.59113 C110.917488,19.465271 112.078376,19.4023415 113.208408,19.4102077 C114.346155,19.4180739 115.456904,19.4967358 116.529086,19.6501264 C117.601267,19.7995839 118.638738,20.0277033 119.626071,20.3344846 C120.678968,20.6609313 121.62002,21.0621068 122.456939,21.5301449 C123.293858,21.998183 124.022787,22.5330836 124.639869,23.1230476 C125.256953,23.7208778 125.762189,24.3698381 126.151723,25.0699287 C126.541256,25.7700192 126.815087,26.52124 126.965501,27.3039255 L127.042636,27.2331298 C127.18148,28.0472801 127.463024,28.841765 127.883412,29.604785 C128.303799,30.3756713 128.870744,31.1072266 129.572676,31.7876516 C130.278465,32.475943 131.126954,33.1091709 132.114286,33.6794695 C133.105476,34.253701 134.235509,34.7571369 135.504386,35.181911 C137.903295,35.9763958 140.549038,36.405103 143.271917,36.4876979 C146.014079,36.574226 148.821807,36.3107087 151.529258,35.7325441 C154.236709,35.1543794 156.828457,34.2615672 159.134805,33.1013048 C161.429582,31.9410423 163.431245,30.5172626 164.977809,28.8732297 C166.505089,27.2409961 167.43457,25.5536991 167.812534,23.9018 C168.18664,22.2695664 168.016942,20.6766637 167.357435,19.2096199 C166.709498,17.7622417 165.579465,16.4328562 164.017473,15.3158578 C162.478623,14.2067255 160.511671,13.294248 158.159042,12.6610199 C156.913306,12.322774 155.621289,12.0828553 154.298418,11.9294646 C152.987117,11.776074 151.644961,11.7131445 150.295092,11.7288769 C148.952937,11.7446093 147.599211,11.8429366 146.257056,12.0159927 C144.922614,12.1929819 143.595886,12.4407668 142.300012,12.7632804 L142.381003,12.6885516 C141.119841,12.9913998 139.84325,13.2273854 138.574373,13.3886422 C137.305497,13.5538321 136.044333,13.6442933 134.806311,13.6639587 C133.572145,13.6796911 132.364976,13.6167616 131.204089,13.4791034 C130.043202,13.337512 128.932453,13.1172588 127.883412,12.8183437 C126.923076,12.5390941 126.063017,12.2047812 125.299377,11.819338 C124.539594,11.437828 123.872373,11.0051878 123.305428,10.5332166 C122.74234,10.0612454 122.27567,9.55387643 121.905421,9.01110958 C121.535171,8.47227581 121.265197,7.90197733 121.083929,7.30808029 C121.037648,6.56865877 120.852523,5.86070201 120.520841,5.1960093 C120.193016,4.53524966 119.730204,3.91775401 119.128548,3.35138862 C118.534605,2.78895631 117.809533,2.28552039 116.953331,1.84501397 C116.108698,1.40450754 115.132936,1.0308637 114.037613,0.735881719" id="Fill-1" fill="#002FA7" fill-rule="nonzero" mask="url(#mask-2)"></path>
            </g>
            <path d="M209.650346,25.5837068 C206.896586,24.8593917 204.030273,24.4897669 201.193975,24.4412303 C198.376434,24.3964273 195.573901,24.6615117 192.936443,25.2140821 C190.302737,25.7629188 187.815349,26.5992415 185.628097,27.6894479 C183.433342,28.7871214 181.523718,30.1461458 180.056796,31.7478531 C178.57862,33.3644948 177.681959,35.0782096 177.336801,36.8031251 C176.98414,38.5504422 177.201739,40.3052264 177.944579,41.9778718 C178.702426,43.6766523 180.004272,45.2820931 181.820104,46.7008548 C183.662197,48.1382845 186.025779,49.3741006 188.869582,50.2962957 C191.743397,51.2334251 194.823558,51.7523933 197.926228,51.8905358 C201.047658,52.0286784 204.17659,51.7747948 207.121688,51.1699542 C210.070539,50.5613801 212.820548,49.6018492 215.18413,48.3324308 C217.536457,47.066746 219.494854,45.5023746 220.88299,43.6841194 C222.252366,41.8845322 222.931427,40.0177405 222.987703,38.1808174 C223.047731,36.3700294 222.503731,34.5965773 221.438244,32.9575342 C220.384011,31.3408925 218.819545,29.8549263 216.816127,28.5929751 C214.838972,27.3459582 212.430369,26.3154892 209.650346,25.5837068" id="Fill-3" fill="#002FA7" fill-rule="nonzero"></path>
            <path d="M134.023516,112.95766 C130.897177,111.426626 127.504098,110.508006 124.044334,110.143659 C120.604183,109.783188 117.077735,109.969237 113.645429,110.655296 C110.213124,111.341354 106.859271,112.535172 103.764312,114.201867 C100.64974,115.876314 97.7822943,118.043018 95.3541836,120.678722 C92.9025364,123.337681 91.1177378,126.240831 89.995864,129.221502 C88.8622225,132.252561 88.4111197,135.376646 88.646478,138.415457 C88.8857589,141.508533 89.8350361,144.524087 91.5060784,147.256692 C93.2045796,150.039685 95.6444585,152.531976 98.8217927,154.524257 C102.042275,156.543672 105.690326,157.838267 109.534508,158.442928 C113.406149,159.051466 117.442539,158.946813 121.38871,158.179358 C125.338803,157.404151 129.171217,155.970019 132.627058,153.931224 C136.059364,151.900182 139.099406,149.287734 141.503981,146.155898 C143.877175,143.066698 145.395235,139.779821 146.120922,136.500695 C146.834842,133.27971 146.779925,130.070354 146.022856,127.058675 C145.277555,124.10126 143.849716,121.333771 141.809946,118.919001 C139.801557,116.542992 137.189083,114.508074 134.023516,112.95766" id="Fill-5" fill="#002FA7" fill-rule="nonzero"></path>
            <polygon id="Fill-7" fill="#231815" fill-rule="nonzero" points="578.433025 54.9818182 578.433025 62.2289795 533.490123 62.2289795 533.490123 92.6716726 575.617513 92.6716726 575.617513 99.9188338 533.490123 99.9188338 533.490123 133.26193 580.390625 133.26193 580.390625 140.509091 525.40625 140.509091 525.40625 54.9818182"></polygon>
            <path d="M245.902344,126.704306 C235.814076,126.704306 227.636612,118.526726 227.636612,108.438314 C227.636612,98.3499017 235.814076,90.1723215 245.902344,90.1723215 C255.990612,90.1723215 264.168075,98.3499017 264.168075,108.438314 C264.168075,118.526726 255.990612,126.704306 245.902344,126.704306 M245.902344,76.3636364 C228.190356,76.3636364 213.828125,90.7221731 213.828125,108.438314 C213.828125,126.150555 228.190356,140.509091 245.902344,140.509091 C263.614332,140.509091 277.976563,126.150555 277.976563,108.438314 C277.976563,90.7221731 263.614332,76.3636364 245.902344,76.3636364" id="Fill-9" fill="#231815" fill-rule="nonzero"></path>
            <g id="Fill-11-Clipped" transform="translate(290.195313, 76.363636)">
                <mask id="mask-4" fill="white">
                    <use xlink:href="#path-3"></use>
                </mask>
                <g id="path-3"></g>
                <path d="M31.8939518,50.3914316 C22.0760492,50.3914316 14.1177416,42.2056053 14.1177416,32.1070203 C14.1177416,22.0084353 22.0760492,13.822609 31.8939518,13.822609 C41.7118544,13.822609 49.670162,22.0084353 49.670162,32.1070203 C49.670162,42.2056053 41.7118544,50.3914316 31.8939518,50.3914316 M32.9338069,0 C25.8673459,0 19.3511733,2.42022524 14.1177416,6.49557226 L14.1177416,1.45213514 L0,1.45213514 L0,91.6367538 L0.804559474,91.6367538 L14.1177416,91.6367538 L14.9260962,91.6367538 L14.9260962,58.3196209 C20.0153143,62.0241273 26.2240846,64.2101368 32.9338069,64.2101368 C50.1749092,64.2101368 64.1484375,49.837122 64.1484375,32.1070203 C64.1484375,14.3730151 50.1749092,0 32.9338069,0" id="Fill-11" fill="#231815" fill-rule="nonzero" mask="url(#mask-4)"></path>
            </g>
            <path d="M402.475207,89.64388 C411.649724,89.64388 417.303877,94.7907122 419.064058,103.518291 L384.457411,103.518291 C386.595051,94.7907122 393.30069,89.64388 402.475207,89.64388 M433.284175,114.382514 C433.596154,112.426876 433.765625,112.021582 433.765625,109.967571 C433.765625,91.4106439 420.670177,76.3636364 402.50602,76.3636364 C384.341863,76.3636364 369.617188,91.7057604 369.617188,110.262688 C369.617188,126.112413 381.075705,143.563636 402.50602,143.563636 C420.10014,143.563636 428.473523,135.697797 433.27262,124.325974 L417.885468,124.325974 C415.035283,128.980945 408.818796,130.358156 402.475207,130.358156 C392.865459,130.358156 385.96724,123.538997 384.183947,114.382514" id="Fill-13" fill="#231815" fill-rule="nonzero"></path>
            <path d="M461.152611,107.496335 C461.152611,100.712683 467.512241,92.8865644 474.388662,92.8865644 C481.265084,92.8865644 486.055053,98.3842512 486.055053,105.171707 L486.062766,105.171707 L486.062766,140.509091 L486.621982,140.509091 L500.405678,140.509091 L500.96875,140.509091 L500.96875,103.375923 L500.96875,103.375923 C500.96875,90.1434273 490.092974,79.4181818 476.683374,79.4181818 C470.385451,79.4181818 464.646744,81.7846601 460.335,85.6615761 L460.335,80.8335034 L445.984375,80.8335034 L445.984375,140.509091 L446.805843,140.509091 L460.335,140.509091 L461.152611,140.509091" id="Fill-15" fill="#231815" fill-rule="nonzero"></path>
            <polygon id="Fill-17" fill="#231815" fill-rule="nonzero" points="533.375113 133.295669 533.375113 99.8418428 575.733043 99.8418428 575.733043 92.6284219 533.375113 92.6284219 533.375113 62.1952395 578.487904 62.1952395 578.487904 54.9818182 525.40625 54.9818182 525.40625 58.6557824 525.40625 62.1952395 525.40625 92.6284219 525.40625 99.8418428 525.40625 133.295669 525.40625 140.509091 533.375113 140.509091 580.390625 140.509091 580.390625 133.295669"></polygon>
            <g id="Fill-19-Clipped">
                <mask id="mask-6" fill="white">
                    <use xlink:href="#path-5"></use>
                </mask>
                <g id="path-5"></g>
                <polygon id="Fill-19" fill="#231815" fill-rule="nonzero" mask="url(#mask-6)" points="662.216366 139.269273 670.148493 139.269273 670.148493 53.0925858 662.216366 53.0925858"></polygon>
            </g>
            <g id="Fill-21-Clipped">
                <mask id="mask-8" fill="white">
                    <use xlink:href="#path-7"></use>
                </mask>
                <g id="path-5"></g>
                <path d="M765.162042,88.5447068 L765.162042,82.9790483 L757.896094,82.9790483 L757.896094,139.270823 L765.162042,139.270823 L765.162042,105.78779 L765.173665,105.78779 C765.173665,96.500074 772.699112,88.970749 781.986831,88.9591297 L782.002321,81.6815564 C775.445149,81.6815564 769.50767,84.2997789 765.162042,88.5447068" id="Fill-21" fill="#231815" fill-rule="nonzero" mask="url(#mask-8)"></path>
            </g>
            <g id="Fill-22-Clipped">
                <mask id="mask-10" fill="white">
                    <use xlink:href="#path-9"></use>
                </mask>
                <g id="path-5"></g>
                <path d="M600.273352,83.0696791 L593.007399,83.0696791 L593.007399,116.67665 C593.011277,129.961417 603.782391,140.732534 617.071023,140.732534 C623.601088,140.732534 629.523072,138.125931 633.857077,133.900369 L633.857077,139.35758 L641.126903,139.35758 L641.126903,83.0696791 L633.864821,83.0696791 L633.864821,117.26149 C633.864821,126.537588 626.34712,134.055293 617.071023,134.055293 C607.794933,134.055293 600.273352,126.537588 600.273352,117.26149" id="Fill-22" fill="#231815" fill-rule="nonzero" mask="url(#mask-10)"></path>
            </g>
            <g id="Fill-23-Clipped">
                <mask id="mask-12" fill="white">
                    <use xlink:href="#path-11"></use>
                </mask>
                <g id="path-5"></g>
                <path d="M715.114509,88.3235524 C725.823653,88.3235524 732.33435,95.6902068 734.065632,105.632479 L696.531337,105.632479 C698.17353,95.6902068 704.405366,88.3235524 715.114509,88.3235524 M742.582594,112.178034 C742.594217,111.844947 742.605834,111.515732 742.605834,111.182645 C742.605834,94.8652344 731.598461,81.634692 715.281053,81.634692 C698.963644,81.634692 688.041482,94.8652344 688.041482,111.182645 C688.041482,127.503929 698.127055,140.730598 715.281053,140.730598 C732.016753,140.730598 739.499603,132.182645 742.795618,120.358042 L734.607864,120.358042 C732.051617,128.414109 724.475811,134.041737 715.114509,134.041737 C704.784927,134.041737 696.430636,124.339598 696.101422,112.178034" id="Fill-23" fill="#231815" fill-rule="nonzero" mask="url(#mask-12)"></path>
            </g>
        </g>
    </g>
</svg>