<?xml version="1.0" encoding="UTF-8"?>
<svg width="64px" height="64px" viewBox="0 0 64 64" version="1.1" xmlns="http://www.w3.org/2000/svg" xmlns:xlink="http://www.w3.org/1999/xlink">
    <title>状态晶体/orange</title>
    <defs>
        <linearGradient x1="50%" y1="0%" x2="50%" y2="100%" id="linearGradient-1">
            <stop stop-color="#F8B047" offset="0%"></stop>
            <stop stop-color="#FE9239" offset="89.6556064%"></stop>
            <stop stop-color="#C65600" offset="90.5440777%"></stop>
            <stop stop-color="#C65600" offset="100%"></stop>
        </linearGradient>
        <linearGradient x1="50%" y1="0%" x2="50%" y2="100%" id="linearGradient-2">
            <stop stop-color="#C85A00" offset="0%"></stop>
            <stop stop-color="#C65600" offset="100%"></stop>
        </linearGradient>
        <linearGradient x1="50%" y1="0%" x2="50%" y2="100%" id="linearGradient-3">
            <stop stop-color="#E58F00" offset="0%"></stop>
            <stop stop-color="#C65600" offset="100%"></stop>
        </linearGradient>
    </defs>
    <g id="状态晶体/orange" stroke="none" stroke-width="1" fill="none" fill-rule="evenodd">
        <rect fill="#FFFFFF" opacity="0" x="0" y="0" width="64" height="64"></rect>
        <g id="功能/作业状态/橙" transform="translate(2.666667, 0.000000)">
            <path d="M2.7794553,14.0682527 L26.7794553,0.666678058 C28.3713352,-0.222226019 30.2953314,-0.222226019 31.8872114,0.666678058 L55.8872114,14.0682527 C57.6006024,15.0250084 58.6666667,16.8634563 58.6666667,18.8614755 L58.6666667,45.1385245 C58.6666667,47.1365437 57.6006024,48.9749916 55.8872114,49.9317473 L31.8872114,63.3333219 C30.2953314,64.222226 28.3713352,64.222226 26.7794553,63.3333219 L2.7794553,49.9317473 C1.06606431,48.9749916 0,47.1365437 0,45.1385245 L0,18.8614755 C0,16.8634563 1.06606431,15.0250084 2.7794553,14.0682527 Z" id="3" fill="url(#linearGradient-1)"></path>
            <path d="M30.8965255,28.5426456 L54.8965255,17.3746667 C56.2372762,16.7507719 57.8182118,17.3576919 58.4276439,18.7302605 C58.5851659,19.0850329 58.6666667,19.4702192 58.6666667,19.859922 L58.6666667,46.7591135 C58.6666667,47.758123 58.1336345,48.677347 57.276939,49.1557248 L33.276939,62.5572995 C31.9840101,63.2792696 30.3641791,62.7915426 29.6589451,61.4679307 C29.445289,61.0669321 29.3333333,60.6174607 29.3333333,60.1606881 L29.3333333,31.0279009 C29.3333333,29.9573686 29.9445407,28.985635 30.8965255,28.5426456 Z" id="3备份" fill="url(#linearGradient-2)"></path>
            <path d="M27.7701412,28.5426456 L3.77014118,17.3746667 C2.42939046,16.7507719 0.848454875,17.3576919 0.239022727,18.7302605 C0.0815007773,19.0850329 0,19.4702192 0,19.859922 L0,46.7591135 C0,47.758123 0.533032157,48.677347 1.38972765,49.1557248 L25.3897277,62.5572995 C26.6826565,63.2792696 28.3024876,62.7915426 29.0077215,61.4679307 C29.2213777,61.0669321 29.3333333,60.6174607 29.3333333,60.1606881 L29.3333333,31.0279009 C29.3333333,29.9573686 28.7221259,28.985635 27.7701412,28.5426456 Z" id="3备份-2" fill="url(#linearGradient-3)"></path>
        </g>
    </g>
</svg>