<?xml version="1.0" encoding="UTF-8"?>
<svg width="16px" height="16px" viewBox="0 0 16 16" version="1.1" xmlns="http://www.w3.org/2000/svg" xmlns:xlink="http://www.w3.org/1999/xlink">
    <title>icon/密码/显示/悬浮</title>
    <defs>
        <path d="M8,3.5 C10.570292,3.5 12.8772844,4.91968763 14.9043172,7.7058442 C15.0318943,7.88119896 15.0318943,8.11880104 14.9043172,8.2941558 C12.8772844,11.0803124 10.570292,12.5 8,12.5 C5.42970801,12.5 3.12271562,11.0803124 1.09568284,8.2941558 C0.968105719,8.11880104 0.968105719,7.88119896 1.09568284,7.7058442 C3.12271562,4.91968763 5.42970801,3.5 8,3.5 Z M8,4.5 C5.94798533,4.5 4.05872349,5.56908354 2.31898922,7.74949732 L2.31898922,7.74949732 L2.123,8 L2.31898922,8.25050268 C3.98913412,10.3436999 5.79708363,11.4126952 7.75453861,11.4948657 L7.75453861,11.4948657 L8,11.5 C10.0520147,11.5 11.9412765,10.4309165 13.6810108,8.25050268 L13.6810108,8.25050268 L13.876,8 L13.6810108,7.74949732 C12.0108659,5.65630009 10.2029164,4.58730481 8.24546139,4.5051343 L8.24546139,4.5051343 Z M8,5.5 C9.38071187,5.5 10.5,6.61928813 10.5,8 C10.5,9.38071187 9.38071187,10.5 8,10.5 C6.61928813,10.5 5.5,9.38071187 5.5,8 C5.5,6.61928813 6.61928813,5.5 8,5.5 Z M8,6.5 C7.17157288,6.5 6.5,7.17157288 6.5,8 C6.5,8.82842712 7.17157288,9.5 8,9.5 C8.82842712,9.5 9.5,8.82842712 9.5,8 C9.5,7.17157288 8.82842712,6.5 8,6.5 Z" id="path-1"></path>
    </defs>
    <g id="icon/密码/显示/悬浮" stroke="none" stroke-width="1" fill="none" fill-rule="evenodd">
        <rect fill="#FFFFFF" opacity="0" x="0" y="0" width="16" height="16"></rect>
        <g id="1-icon/01公共/invisible备份">
            <mask id="mask-2" fill="white">
                <use xlink:href="#path-1"></use>
            </mask>
            <use id="形状结合" fill="#000000" fill-rule="nonzero" xlink:href="#path-1"></use>
            <g id="编组" mask="url(#mask-2)" fill="#52A3FF">
                <g id="矩形">
                    <rect x="0" y="0" width="16" height="16"></rect>
                </g>
            </g>
        </g>
    </g>
</svg>