<?xml version="1.0" encoding="UTF-8"?>
<svg width="16px" height="16px" viewBox="0 0 16 16" version="1.1" xmlns="http://www.w3.org/2000/svg" xmlns:xlink="http://www.w3.org/1999/xlink">
    <title>icon/告警/错误_16px</title>
    <g id="icon/告警/错误_16px" stroke="none" stroke-width="1" fill="none" fill-rule="evenodd">
        <rect fill="#FFFFFF" opacity="0" x="0" y="0" width="16" height="16"></rect>
        <g id="编组" transform="translate(1.000000, 1.000000)">
            <path d="M7,0 C3.134375,0 0,3.134375 0,7 C0,10.865625 3.134375,14 7,14 C10.865625,14 14,10.865625 14,7 C14,3.134375 10.865625,0 7,0 Z" id="路径" fill="#E32020"></path>
            <path d="M7,10.6666667 C6.63194444,10.6666667 6.33333333,10.3381944 6.33333333,9.93333333 C6.33333333,9.52847222 6.63194444,9.2 7,9.2 C7.36805556,9.2 7.66666667,9.52847222 7.66666667,9.93333333 C7.66666667,10.3381944 7.36805556,10.6666667 7,10.6666667 Z M7,3.33333333 C7.24545989,3.33333333 7.44444444,3.53231789 7.44444444,3.77777778 L7.44444444,7.77777778 C7.44444444,8.02323767 7.24545989,8.22222222 7,8.22222222 C6.75454011,8.22222222 6.55555556,8.02323767 6.55555556,7.77777778 L6.55555556,3.77777778 C6.55555556,3.53231789 6.75454011,3.33333333 7,3.33333333 Z" id="形状" fill="#FFFFFF"></path>
        </g>
    </g>
</svg>