<?xml version="1.0" encoding="UTF-8"?>
<svg width="24px" height="24px" viewBox="0 0 24 24" version="1.1" xmlns="http://www.w3.org/2000/svg" xmlns:xlink="http://www.w3.org/1999/xlink">
    <title>导航栏/用户/悬浮</title>
    <defs>
        <path d="M12,1.5 C8.89339828,1.5 6.375,4.01839828 6.375,7.125 C6.375,10.2316017 8.89339828,12.75 12,12.75 C15.1066017,12.75 17.625,10.2316017 17.625,7.125 C17.625,4.01839828 15.1066017,1.5 12,1.5 Z M12,3 C14.2781746,3 16.125,4.84682541 16.125,7.125 C16.125,9.40317459 14.2781746,11.25 12,11.25 C9.72182541,11.25 7.875,9.40317459 7.875,7.125 C7.875,4.84682541 9.72182541,3 12,3 Z M18.75,14.25 L5.25,14.25 C4.00735931,14.25 3,15.2573593 3,16.5 L3,18.375 C3,20.6531746 4.84682541,22.5 7.125,22.5 L16.875,22.5 C19.1531746,22.5 21,20.6531746 21,18.375 L21,16.5 C21,15.2573593 19.9926407,14.25 18.75,14.25 Z M5.25,15.75 L18.75,15.75 C19.1642136,15.75 19.5,16.0857864 19.5,16.5 L19.5,18.375 C19.5,19.8247475 18.3247475,21 16.875,21 L7.125,21 C5.67525253,21 4.5,19.8247475 4.5,18.375 L4.5,16.5 C4.5,16.0857864 4.83578644,15.75 5.25,15.75 Z" id="path-1"></path>
    </defs>
    <g id="导航栏/用户/悬浮" stroke="none" stroke-width="1" fill="none" fill-rule="evenodd">
        <rect fill="#FFFFFF" opacity="0" x="0" y="0" width="24" height="24"></rect>
        <g id="1-icon/01公共/04桌面/user">
            <mask id="mask-2" fill="white">
                <use xlink:href="#path-1"></use>
            </mask>
            <use id="形状结合" fill="#000000" fill-rule="nonzero" xlink:href="#path-1"></use>
            <g id="编组" mask="url(#mask-2)" fill="#52A3FF">
                <g id="0-color/Light/3-Text-3Secondary">
                    <rect id="矩形" x="0" y="0" width="24" height="24"></rect>
                </g>
            </g>
        </g>
    </g>
</svg>