<?xml version="1.0" encoding="UTF-8"?>
<svg width="24px" height="24px" viewBox="0 0 24 24" version="1.1" xmlns="http://www.w3.org/2000/svg" xmlns:xlink="http://www.w3.org/1999/xlink">
    <title>进度条步骤/数字/已完成/9</title>
    <g id="进度条步骤/数字/已完成/9" stroke="none" stroke-width="1" fill="none" fill-rule="evenodd">
        <rect fill="#FFFFFF" opacity="0" x="0" y="0" width="24" height="24"></rect>
        <g id="Light/2-控件/18流程/带步骤/已完成/图标" transform="translate(2.000000, 2.000000)">
            <g id="编组-18备份-6" fill="#E6F2FF" stroke="#0077FF">
                <circle id="椭圆形备份" cx="10" cy="10" r="9.5"></circle>
            </g>
            <g id="1" transform="translate(7.012000, 5.060000)" fill="#0077FF" fill-rule="nonzero">
                <path d="M2.928,0 C3.488,0 3.99,0.122 4.434,0.366 C4.878,0.61 5.226,0.952 5.478,1.392 C5.73,1.832 5.856,2.336 5.856,2.904 C5.856,3.336 5.776,3.742 5.616,4.122 C5.456,4.502 5.184,5 4.8,5.616 L2.772,8.928 L1.344,8.928 L3.12,6.072 C3.272,5.832 3.396,5.652 3.492,5.532 C3.284,5.604 3.028,5.64 2.724,5.64 C2.196,5.64 1.724,5.518 1.308,5.274 C0.892,5.03 0.57,4.698 0.342,4.278 C0.114,3.858 -1.13686838e-13,3.384 -1.13686838e-13,2.856 C-1.13686838e-13,2.312 0.128,1.822 0.384,1.386 C0.64,0.95 0.992,0.61 1.44,0.366 C1.888,0.122 2.384,0 2.928,0 Z M2.94,4.5 C3.412,4.5 3.79,4.344 4.074,4.032 C4.358,3.72 4.5,3.316 4.5,2.82 C4.5,2.324 4.358,1.924 4.074,1.62 C3.79,1.316 3.412,1.164 2.94,1.164 C2.468,1.164 2.09,1.318 1.806,1.626 C1.522,1.934 1.38,2.332 1.38,2.82 C1.38,3.324 1.522,3.73 1.806,4.038 C2.09,4.346 2.468,4.5 2.94,4.5 Z" id="形状"></path>
            </g>
        </g>
    </g>
</svg>