<?xml version="1.0" encoding="UTF-8"?>
<svg width="24px" height="24px" viewBox="0 0 24 24" version="1.1" xmlns="http://www.w3.org/2000/svg" xmlns:xlink="http://www.w3.org/1999/xlink">
    <title>进度条步骤/数字/已完成/10</title>
    <g id="进度条步骤/数字/已完成/10" stroke="none" stroke-width="1" fill="none" fill-rule="evenodd">
        <rect fill="#FFFFFF" opacity="0" x="0" y="0" width="24" height="24"></rect>
        <g id="Light/2-控件/18流程/带步骤/进行中/图标备份" transform="translate(2.000000, 2.000000)">
            <g id="编组-18备份-6" fill="#E6F2FF" stroke="#0077FF">
                <circle id="椭圆形备份" cx="10" cy="10" r="9.5"></circle>
            </g>
            <g id="10" transform="translate(4.450082, 5.439231)" fill="#0077FF" fill-rule="nonzero">
                <polygon id="路径" points="0 2.928 0 1.644 2.604 0.144 3.6 0.144 3.6 8.94 2.292 8.94 2.292 1.632"></polygon>
                <path d="M11.24,4.548 C11.24,6.028 10.986,7.152 10.478,7.92 C9.97,8.688 9.244,9.072 8.3,9.072 C7.364,9.072 6.642,8.688 6.134,7.92 C5.626,7.152 5.372,6.028 5.372,4.548 C5.372,3.06 5.626,1.93 6.134,1.158 C6.642,0.386 7.364,0 8.3,0 C9.244,0 9.97,0.384 10.478,1.152 C10.986,1.92 11.24,3.052 11.24,4.548 Z M6.74,4.548 C6.74,5.668 6.868,6.506 7.124,7.062 C7.38,7.618 7.772,7.896 8.3,7.896 C8.836,7.896 9.23,7.62 9.482,7.068 C9.734,6.516 9.86,5.676 9.86,4.548 C9.86,3.412 9.734,2.566 9.482,2.01 C9.23,1.454 8.836,1.176 8.3,1.176 C7.772,1.176 7.38,1.454 7.124,2.01 C6.868,2.566 6.74,3.412 6.74,4.548 Z" id="形状"></path>
            </g>
        </g>
    </g>
</svg>