<?xml version="1.0" encoding="UTF-8"?>
<svg width="24px" height="24px" viewBox="0 0 24 24" version="1.1" xmlns="http://www.w3.org/2000/svg" xmlns:xlink="http://www.w3.org/1999/xlink">
    <title>进度条步骤/数字/已完成/2</title>
    <g id="进度条步骤/数字/已完成/2" stroke="none" stroke-width="1" fill="none" fill-rule="evenodd">
        <rect fill="#FFFFFF" opacity="0" x="0" y="0" width="24" height="24"></rect>
        <g id="Light/2-控件/18流程/带步骤/已完成/图标" transform="translate(2.000000, 2.000000)">
            <g id="编组-18备份-6" fill="#E6F2FF" stroke="#0077FF">
                <circle id="椭圆形备份" cx="10" cy="10" r="9.5"></circle>
            </g>
            <g id="1" transform="translate(7.120000, 5.060000)" fill="#0077FF" fill-rule="nonzero">
                <path d="M1.92,7.8 L5.748,7.8 L5.748,8.94 L0,8.94 L0,8.112 L2.772,5.004 C3.276,4.444 3.626,4.002 3.822,3.678 C4.018,3.354 4.116,3.004 4.116,2.628 C4.116,2.164 3.992,1.806 3.744,1.554 C3.496,1.302 3.176,1.176 2.784,1.176 C2.384,1.176 2.03,1.312 1.722,1.584 C1.414,1.856 1.192,2.228 1.056,2.7 L0.024,2.112 C0.208,1.44 0.566,0.92 1.098,0.552 C1.63,0.184 2.224,0 2.88,0 C3.376,0 3.822,0.102 4.218,0.306 C4.614,0.51 4.924,0.806 5.148,1.194 C5.372,1.582 5.484,2.04 5.484,2.568 C5.484,3.088 5.358,3.576 5.106,4.032 C4.854,4.488 4.408,5.064 3.768,5.76 L1.92,7.8 Z" id="路径"></path>
            </g>
        </g>
    </g>
</svg>