<?xml version="1.0" encoding="UTF-8"?>
<svg width="24px" height="24px" viewBox="0 0 24 24" version="1.1" xmlns="http://www.w3.org/2000/svg" xmlns:xlink="http://www.w3.org/1999/xlink">
    <title>进度条步骤/数字/已完成/6</title>
    <g id="进度条步骤/数字/已完成/6" stroke="none" stroke-width="1" fill="none" fill-rule="evenodd">
        <rect fill="#FFFFFF" opacity="0" x="0" y="0" width="24" height="24"></rect>
        <g id="Light/2-控件/18流程/带步骤/已完成/图标" transform="translate(2.000000, 2.000000)">
            <g id="编组-18备份-6" fill="#E6F2FF" stroke="#0077FF">
                <circle id="椭圆形备份" cx="10" cy="10" r="9.5"></circle>
            </g>
            <g id="1" transform="translate(7.156000, 5.204000)" fill="#0077FF" fill-rule="nonzero">
                <path d="M3.132,3.288 C3.66,3.288 4.13,3.41 4.542,3.654 C4.954,3.898 5.276,4.232 5.508,4.656 C5.74,5.08 5.856,5.552 5.856,6.072 C5.856,6.616 5.728,7.106 5.472,7.542 C5.216,7.978 4.864,8.318 4.416,8.562 C3.968,8.806 3.472,8.928 2.928,8.928 C2.368,8.928 1.866,8.806 1.422,8.562 C0.978,8.318 0.63,7.976 0.378,7.536 C0.126,7.096 0,6.592 0,6.024 C0,5.592 0.08,5.184 0.24,4.8 C0.4,4.416 0.668,3.92 1.044,3.312 L3.084,0 L4.512,0 L2.736,2.856 L2.364,3.396 C2.572,3.324 2.828,3.288 3.132,3.288 Z M2.916,7.764 C3.388,7.764 3.766,7.61 4.05,7.302 C4.334,6.994 4.476,6.596 4.476,6.108 C4.476,5.604 4.334,5.198 4.05,4.89 C3.766,4.582 3.388,4.428 2.916,4.428 C2.444,4.428 2.066,4.584 1.782,4.896 C1.498,5.208 1.356,5.612 1.356,6.108 C1.356,6.604 1.498,7.004 1.782,7.308 C2.066,7.612 2.444,7.764 2.916,7.764 Z" id="形状"></path>
            </g>
        </g>
    </g>
</svg>