<?xml version="1.0" encoding="UTF-8"?>
<svg width="24px" height="24px" viewBox="0 0 24 24" version="1.1" xmlns="http://www.w3.org/2000/svg" xmlns:xlink="http://www.w3.org/1999/xlink">
    <title>进度条步骤/数字/已完成/3</title>
    <g id="进度条步骤/数字/已完成/3" stroke="none" stroke-width="1" fill="none" fill-rule="evenodd">
        <rect fill="#FFFFFF" opacity="0" x="0" y="0" width="24" height="24"></rect>
        <g id="Light/2-控件/18流程/带步骤/已完成/图标" transform="translate(2.000000, 2.000000)">
            <g id="编组-18备份-6" fill="#E6F2FF" stroke="#0077FF">
                <circle id="椭圆形备份" cx="10" cy="10" r="9.5"></circle>
            </g>
            <g id="1" transform="translate(7.036000, 5.060000)" fill="#0077FF" fill-rule="nonzero">
                <path d="M4.26,4.284 C4.772,4.46 5.158,4.732 5.418,5.1 C5.678,5.468 5.808,5.924 5.808,6.468 C5.808,7.012 5.678,7.48 5.418,7.872 C5.158,8.264 4.808,8.562 4.368,8.766 C3.928,8.97 3.444,9.072 2.916,9.072 C2.252,9.072 1.65,8.906 1.11,8.574 C0.57,8.242 0.2,7.756 0,7.116 L1.032,6.528 C1.184,6.984 1.432,7.33 1.776,7.566 C2.12,7.802 2.496,7.92 2.904,7.92 C3.344,7.92 3.71,7.786 4.002,7.518 C4.294,7.25 4.44,6.884 4.44,6.42 C4.44,5.436 3.744,4.944 2.352,4.944 L2.004,4.944 L2.004,3.816 L2.448,3.816 C2.992,3.816 3.408,3.684 3.696,3.42 C3.984,3.156 4.128,2.82 4.128,2.412 C4.128,2.028 4.006,1.724 3.762,1.5 C3.518,1.276 3.204,1.164 2.82,1.164 C2.412,1.164 2.066,1.286 1.782,1.53 C1.498,1.774 1.284,2.128 1.14,2.592 L0.12,2.004 C0.32,1.348 0.666,0.85 1.158,0.51 C1.65,0.17 2.232,0 2.904,0 C3.416,0 3.868,0.098 4.26,0.294 C4.652,0.49 4.956,0.766 5.172,1.122 C5.388,1.478 5.496,1.888 5.496,2.352 C5.496,2.792 5.394,3.18 5.19,3.516 C4.986,3.852 4.676,4.108 4.26,4.284 Z" id="路径"></path>
            </g>
        </g>
    </g>
</svg>