<?xml version="1.0" encoding="UTF-8"?>
<svg width="24px" height="24px" viewBox="0 0 24 24" version="1.1" xmlns="http://www.w3.org/2000/svg" xmlns:xlink="http://www.w3.org/1999/xlink">
    <title>进度条步骤/数字/已完成/5</title>
    <g id="进度条步骤/数字/已完成/5" stroke="none" stroke-width="1" fill="none" fill-rule="evenodd">
        <rect fill="#FFFFFF" opacity="0" x="0" y="0" width="24" height="24"></rect>
        <g id="Light/2-控件/18流程/带步骤/已完成/图标" transform="translate(2.000000, 2.000000)">
            <g id="编组-18备份-6" fill="#E6F2FF" stroke="#0077FF">
                <circle id="椭圆形备份" cx="10" cy="10" r="9.5"></circle>
            </g>
            <g id="1" transform="translate(7.336000, 5.192000)" fill="#0077FF" fill-rule="nonzero">
                <path d="M2.784,3.168 C3.296,3.168 3.758,3.288 4.17,3.528 C4.582,3.768 4.904,4.104 5.136,4.536 C5.368,4.968 5.484,5.46 5.484,6.012 C5.484,6.596 5.356,7.11 5.1,7.554 C4.844,7.998 4.494,8.34 4.05,8.58 C3.606,8.82 3.116,8.94 2.58,8.94 C1.972,8.94 1.436,8.792 0.972,8.496 C0.508,8.2 0.184,7.764 0,7.188 L1.044,6.588 C1.172,6.988 1.366,7.288 1.626,7.488 C1.886,7.688 2.2,7.788 2.568,7.788 C3.056,7.788 3.436,7.626 3.708,7.302 C3.98,6.978 4.116,6.564 4.116,6.06 C4.116,5.572 3.982,5.16 3.714,4.824 C3.446,4.488 3.06,4.32 2.556,4.32 C1.924,4.32 1.42,4.616 1.044,5.208 L0.18,4.776 L0.78,1.42108547e-14 L5.076,1.42108547e-14 L5.076,1.116 L1.884,1.116 L1.572,3.468 C1.932,3.268 2.336,3.168 2.784,3.168 Z" id="路径"></path>
            </g>
        </g>
    </g>
</svg>