<?xml version="1.0" encoding="UTF-8"?>
<svg width="24px" height="24px" viewBox="0 0 24 24" version="1.1" xmlns="http://www.w3.org/2000/svg" xmlns:xlink="http://www.w3.org/1999/xlink">
    <title>进度条步骤/数字/已完成/8</title>
    <g id="进度条步骤/数字/已完成/8" stroke="none" stroke-width="1" fill="none" fill-rule="evenodd">
        <rect fill="#FFFFFF" opacity="0" x="0" y="0" width="24" height="24"></rect>
        <g id="Light/2-控件/18流程/带步骤/已完成/图标" transform="translate(2.000000, 2.000000)">
            <g id="编组-18备份-6" fill="#E6F2FF" stroke="#0077FF">
                <circle id="椭圆形备份" cx="10" cy="10" r="9.5"></circle>
            </g>
            <g id="1" transform="translate(7.072000, 5.060000)" fill="#0077FF" fill-rule="nonzero">
                <path d="M4.416,4.164 C4.864,4.372 5.216,4.674 5.472,5.07 C5.728,5.466 5.856,5.924 5.856,6.444 C5.856,6.948 5.736,7.4 5.496,7.8 C5.256,8.2 4.916,8.512 4.476,8.736 C4.036,8.96 3.528,9.072 2.952,9.072 C2.368,9.072 1.852,8.96 1.404,8.736 C0.956,8.512 0.61,8.2 0.366,7.8 C0.122,7.4 0,6.948 0,6.444 C0,5.916 0.13,5.456 0.39,5.064 C0.65,4.672 1.008,4.372 1.464,4.164 C1.096,3.972 0.81,3.718 0.606,3.402 C0.402,3.086 0.3,2.724 0.3,2.316 C0.3,1.892 0.41,1.504 0.63,1.152 C0.85,0.8 1.16,0.52 1.56,0.312 C1.96,0.104 2.424,0 2.952,0 C3.472,0 3.928,0.102 4.32,0.306 C4.712,0.51 5.012,0.788 5.22,1.14 C5.428,1.492 5.532,1.884 5.532,2.316 C5.532,2.724 5.434,3.086 5.238,3.402 C5.042,3.718 4.768,3.972 4.416,4.164 Z M2.952,1.104 C2.544,1.104 2.224,1.222 1.992,1.458 C1.76,1.694 1.644,1.996 1.644,2.364 C1.644,2.732 1.76,3.034 1.992,3.27 C2.224,3.506 2.544,3.624 2.952,3.624 C3.344,3.624 3.658,3.506 3.894,3.27 C4.13,3.034 4.248,2.732 4.248,2.364 C4.248,1.996 4.13,1.694 3.894,1.458 C3.658,1.222 3.344,1.104 2.952,1.104 Z M2.952,7.92 C3.424,7.92 3.802,7.782 4.086,7.506 C4.37,7.23 4.512,6.852 4.512,6.372 C4.512,5.884 4.372,5.496 4.092,5.208 C3.812,4.92 3.432,4.776 2.952,4.776 C2.464,4.776 2.078,4.92 1.794,5.208 C1.51,5.496 1.368,5.884 1.368,6.372 C1.368,6.852 1.512,7.23 1.8,7.506 C2.088,7.782 2.472,7.92 2.952,7.92 Z" id="形状"></path>
            </g>
        </g>
    </g>
</svg>