<?xml version="1.0" encoding="UTF-8"?>
<svg width="24px" height="24px" viewBox="0 0 24 24" version="1.1" xmlns="http://www.w3.org/2000/svg" xmlns:xlink="http://www.w3.org/1999/xlink">
    <title>进度条步骤/数字/进行中/6</title>
    <defs>
        <circle id="path-1" cx="10" cy="10" r="10"></circle>
    </defs>
    <g id="进度条步骤/数字/进行中/6" stroke="none" stroke-width="1" fill="none" fill-rule="evenodd">
        <rect fill="#FFFFFF" opacity="0" x="0" y="0" width="24" height="24"></rect>
        <g id="Light/2-控件/18流程/带步骤/已完成/图标备份-13" transform="translate(2.000000, 2.000000)">
            <g id="椭圆形备份">
                <circle stroke="#FFFFFF" stroke-width="2" stroke-linejoin="square" fill="#0077FF" fill-rule="evenodd" cx="10" cy="10" r="9"></circle>
                <circle stroke="#0077FF" stroke-width="1.4" cx="10" cy="10" r="10.7"></circle>
            </g>
            <g id="2" transform="translate(6.970000, 5.204000)" fill="#FFFFFF" fill-rule="nonzero">
                <path d="M3.408,3.204 C3.952,3.204 4.436,3.322 4.86,3.558 C5.284,3.794 5.612,4.124 5.844,4.548 C6.076,4.972 6.192,5.456 6.192,6 C6.192,6.568 6.054,7.076 5.778,7.524 C5.502,7.972 5.126,8.32 4.65,8.568 C4.174,8.816 3.656,8.94 3.096,8.94 C2.52,8.94 1.996,8.814 1.524,8.562 C1.052,8.31 0.68,7.956 0.408,7.5 C0.136,7.044 0,6.516 0,5.916 C0,5.468 0.084,5.038 0.252,4.626 C0.42,4.214 0.716,3.672 1.14,3 L3.036,0 L4.92,0 L3.204,2.64 C3.068,2.856 2.92,3.072 2.76,3.288 C2.952,3.232 3.168,3.204 3.408,3.204 Z M3.084,7.38 C3.46,7.38 3.764,7.254 3.996,7.002 C4.228,6.75 4.344,6.424 4.344,6.024 C4.344,5.624 4.228,5.298 3.996,5.046 C3.764,4.794 3.46,4.668 3.084,4.668 C2.7,4.668 2.392,4.794 2.16,5.046 C1.928,5.298 1.812,5.624 1.812,6.024 C1.812,6.432 1.93,6.76 2.166,7.008 C2.402,7.256 2.708,7.38 3.084,7.38 Z" id="形状"></path>
            </g>
        </g>
    </g>
</svg>