<?xml version="1.0" encoding="UTF-8"?>
<svg width="24px" height="24px" viewBox="0 0 24 24" version="1.1" xmlns="http://www.w3.org/2000/svg" xmlns:xlink="http://www.w3.org/1999/xlink">
    <title>进度条步骤/数字/进行中/5</title>
    <defs>
        <circle id="path-1" cx="10" cy="10" r="10"></circle>
    </defs>
    <g id="进度条步骤/数字/进行中/5" stroke="none" stroke-width="1" fill="none" fill-rule="evenodd">
        <rect fill="#FFFFFF" opacity="0" x="0" y="0" width="24" height="24"></rect>
        <g id="Light/2-控件/18流程/带步骤/已完成/图标备份" transform="translate(2.000000, 2.000000)">
            <g id="椭圆形备份">
                <circle stroke="#FFFFFF" stroke-width="2" stroke-linejoin="square" fill="#0077FF" fill-rule="evenodd" cx="10" cy="10" r="9"></circle>
                <circle stroke="#0077FF" stroke-width="1.4" cx="10" cy="10" r="10.7"></circle>
            </g>
            <g id="2" transform="translate(7.186000, 5.204000)" fill="#FFFFFF" fill-rule="nonzero">
                <path d="M3.06,3.084 C3.564,3.084 4.024,3.202 4.44,3.438 C4.856,3.674 5.184,4.01 5.424,4.446 C5.664,4.882 5.784,5.384 5.784,5.952 C5.784,6.568 5.65,7.102 5.382,7.554 C5.114,8.006 4.748,8.35 4.284,8.586 C3.82,8.822 3.308,8.94 2.748,8.94 C2.084,8.94 1.51,8.788 1.026,8.484 C0.542,8.18 0.2,7.72 0,7.104 L1.404,6.3 C1.508,6.66 1.676,6.932 1.908,7.116 C2.14,7.3 2.412,7.392 2.724,7.392 C3.116,7.392 3.418,7.262 3.63,7.002 C3.842,6.742 3.948,6.412 3.948,6.012 C3.948,5.612 3.838,5.278 3.618,5.01 C3.398,4.742 3.084,4.608 2.676,4.608 C2.148,4.608 1.728,4.868 1.416,5.388 L0.168,4.776 L0.768,1.42108547e-14 L5.376,1.42108547e-14 L5.376,1.488 L2.232,1.488 L1.992,3.3 C2.336,3.156 2.692,3.084 3.06,3.084 Z" id="路径"></path>
            </g>
        </g>
    </g>
</svg>