<?xml version="1.0" encoding="UTF-8"?>
<svg width="24px" height="24px" viewBox="0 0 24 24" version="1.1" xmlns="http://www.w3.org/2000/svg" xmlns:xlink="http://www.w3.org/1999/xlink">
    <title>进度条步骤/数字/进行中/9</title>
    <defs>
        <circle id="path-1" cx="10" cy="10" r="10"></circle>
    </defs>
    <g id="进度条步骤/数字/进行中/9" stroke="none" stroke-width="1" fill="none" fill-rule="evenodd">
        <rect fill="#FFFFFF" opacity="0" x="0" y="0" width="24" height="24"></rect>
        <g id="Light/2-控件/18流程/带步骤/已完成/图标备份-16" transform="translate(2.000000, 2.000000)">
            <g id="椭圆形备份">
                <circle stroke="#FFFFFF" stroke-width="2" stroke-linejoin="square" fill="#0077FF" fill-rule="evenodd" cx="10" cy="10" r="9"></circle>
                <circle stroke="#0077FF" stroke-width="1.4" cx="10" cy="10" r="10.7"></circle>
            </g>
            <g id="2" transform="translate(6.838000, 5.048000)" fill="#FFFFFF" fill-rule="nonzero">
                <path d="M3.108,0 C3.684,0 4.208,0.126 4.68,0.378 C5.152,0.63 5.524,0.984 5.796,1.44 C6.068,1.896 6.204,2.424 6.204,3.024 C6.204,3.472 6.12,3.902 5.952,4.314 C5.784,4.726 5.488,5.268 5.064,5.94 L3.168,8.94 L1.284,8.94 L3,6.3 C3.136,6.084 3.284,5.868 3.444,5.652 C3.252,5.708 3.036,5.736 2.796,5.736 C2.252,5.736 1.768,5.618 1.344,5.382 C0.92,5.146 0.59,4.816 0.354,4.392 C0.118,3.968 0,3.484 0,2.94 C0,2.372 0.14,1.864 0.42,1.416 C0.7,0.968 1.078,0.62 1.554,0.372 C2.03,0.124 2.548,0 3.108,0 Z M3.12,4.272 C3.504,4.272 3.812,4.146 4.044,3.894 C4.276,3.642 4.392,3.316 4.392,2.916 C4.392,2.508 4.274,2.18 4.038,1.932 C3.802,1.684 3.496,1.56 3.12,1.56 C2.744,1.56 2.44,1.686 2.208,1.938 C1.976,2.19 1.86,2.516 1.86,2.916 C1.86,3.316 1.976,3.642 2.208,3.894 C2.44,4.146 2.744,4.272 3.12,4.272 Z" id="形状"></path>
            </g>
        </g>
    </g>
</svg>