<?xml version="1.0" encoding="UTF-8"?>
<svg width="24px" height="24px" viewBox="0 0 24 24" version="1.1" xmlns="http://www.w3.org/2000/svg" xmlns:xlink="http://www.w3.org/1999/xlink">
    <title>进度条步骤/数字/进行中/3</title>
    <defs>
        <circle id="path-1" cx="10" cy="10" r="10"></circle>
    </defs>
    <g id="进度条步骤/数字/进行中/3" stroke="none" stroke-width="1" fill="none" fill-rule="evenodd">
        <rect fill="#FFFFFF" opacity="0" x="0" y="0" width="24" height="24"></rect>
        <g id="Light/2-控件/18流程/带步骤/已完成/图标备份-8" transform="translate(2.000000, 2.000000)">
            <g id="椭圆形备份">
                <circle stroke="#FFFFFF" stroke-width="2" stroke-linejoin="square" fill="#0077FF" fill-rule="evenodd" cx="10" cy="10" r="9"></circle>
                <circle stroke="#0077FF" stroke-width="1.4" cx="10" cy="10" r="10.7"></circle>
            </g>
            <g id="2" transform="translate(6.838000, 5.048000)" fill="#FFFFFF" fill-rule="nonzero">
                <path d="M4.632,4.368 C5.12,4.552 5.492,4.822 5.748,5.178 C6.004,5.534 6.132,5.976 6.132,6.504 C6.132,7.048 5.994,7.514 5.718,7.902 C5.442,8.29 5.07,8.586 4.602,8.79 C4.134,8.994 3.616,9.096 3.048,9.096 C2.32,9.096 1.686,8.924 1.146,8.58 C0.606,8.236 0.224,7.736 0,7.08 L1.38,6.288 C1.508,6.704 1.72,7.018 2.016,7.23 C2.312,7.442 2.644,7.548 3.012,7.548 C3.372,7.548 3.674,7.444 3.918,7.236 C4.162,7.028 4.284,6.74 4.284,6.372 C4.284,5.564 3.668,5.16 2.436,5.16 L2.112,5.16 L2.112,3.72 L2.58,3.72 C3.036,3.72 3.386,3.61 3.63,3.39 C3.874,3.17 3.996,2.896 3.996,2.568 C3.996,2.264 3.896,2.02 3.696,1.836 C3.496,1.652 3.236,1.56 2.916,1.56 C2.572,1.56 2.274,1.67 2.022,1.89 C1.77,2.11 1.576,2.424 1.44,2.832 L0.12,2.076 C0.328,1.404 0.692,0.89 1.212,0.534 C1.732,0.178 2.348,0 3.06,0 C3.612,0 4.098,0.102 4.518,0.306 C4.938,0.51 5.264,0.796 5.496,1.164 C5.728,1.532 5.844,1.956 5.844,2.436 C5.844,2.884 5.742,3.272 5.538,3.6 C5.334,3.928 5.032,4.184 4.632,4.368 Z" id="路径"></path>
            </g>
        </g>
    </g>
</svg>