<?xml version="1.0" encoding="UTF-8"?>
<svg width="24px" height="24px" viewBox="0 0 24 24" version="1.1" xmlns="http://www.w3.org/2000/svg" xmlns:xlink="http://www.w3.org/1999/xlink">
    <title>进度条步骤/数字/进行中/8</title>
    <defs>
        <circle id="path-1" cx="10" cy="10" r="10"></circle>
    </defs>
    <g id="进度条步骤/数字/进行中/8" stroke="none" stroke-width="1" fill="none" fill-rule="evenodd">
        <rect fill="#FFFFFF" opacity="0" x="0" y="0" width="24" height="24"></rect>
        <g id="Light/2-控件/18流程/带步骤/已完成/图标备份-15" transform="translate(2.000000, 2.000000)">
            <g id="椭圆形备份">
                <circle stroke="#FFFFFF" stroke-width="2" stroke-linejoin="square" fill="#0077FF" fill-rule="evenodd" cx="10" cy="10" r="9"></circle>
                <circle stroke="#0077FF" stroke-width="1.4" cx="10" cy="10" r="10.7"></circle>
            </g>
            <g id="2" transform="translate(6.886000, 5.048000)" fill="#FFFFFF" fill-rule="nonzero">
                <path d="M4.812,4.176 C5.252,4.392 5.598,4.69 5.85,5.07 C6.102,5.45 6.228,5.904 6.228,6.432 C6.228,6.952 6.102,7.414 5.85,7.818 C5.598,8.222 5.238,8.536 4.77,8.76 C4.302,8.984 3.76,9.096 3.144,9.096 C2.512,9.096 1.958,8.984 1.482,8.76 C1.006,8.536 0.64,8.222 0.384,7.818 C0.128,7.414 0,6.952 0,6.432 C0,5.904 0.128,5.45 0.384,5.07 C0.64,4.69 0.992,4.396 1.44,4.188 C1.08,3.996 0.8,3.746 0.6,3.438 C0.4,3.13 0.3,2.776 0.3,2.376 C0.3,1.944 0.412,1.546 0.636,1.182 C0.86,0.818 1.188,0.53 1.62,0.318 C2.052,0.106 2.56,0 3.144,0 C3.728,0 4.226,0.106 4.638,0.318 C5.05,0.53 5.362,0.814 5.574,1.17 C5.786,1.526 5.892,1.928 5.892,2.376 C5.892,2.776 5.796,3.13 5.604,3.438 C5.412,3.746 5.148,3.992 4.812,4.176 Z M3.144,1.452 C2.832,1.452 2.582,1.548 2.394,1.74 C2.206,1.932 2.112,2.172 2.112,2.46 C2.112,2.748 2.206,2.988 2.394,3.18 C2.582,3.372 2.832,3.468 3.144,3.468 C3.448,3.468 3.696,3.372 3.888,3.18 C4.08,2.988 4.176,2.748 4.176,2.46 C4.176,2.18 4.08,1.942 3.888,1.746 C3.696,1.55 3.448,1.452 3.144,1.452 Z M3.144,7.548 C3.512,7.548 3.812,7.434 4.044,7.206 C4.276,6.978 4.392,6.668 4.392,6.276 C4.392,5.876 4.278,5.556 4.05,5.316 C3.822,5.076 3.52,4.956 3.144,4.956 C2.752,4.956 2.44,5.076 2.208,5.316 C1.976,5.556 1.86,5.876 1.86,6.276 C1.86,6.668 1.978,6.978 2.214,7.206 C2.45,7.434 2.76,7.548 3.144,7.548 Z" id="形状"></path>
            </g>
        </g>
    </g>
</svg>