<?xml version="1.0" encoding="UTF-8"?>
<svg width="16px" height="16px" viewBox="0 0 16 16" version="1.1" xmlns="http://www.w3.org/2000/svg" xmlns:xlink="http://www.w3.org/1999/xlink">
    <title>icon/减少/按下</title>
    <defs>
        <path d="M8,1 C11.8659932,1 15,4.13400675 15,8 C15,11.8659932 11.8659932,15 8,15 C4.13400675,15 1,11.8659932 1,8 C1,4.13400675 4.13400675,1 8,1 Z M8,2 C4.6862915,2 2,4.6862915 2,8 C2,11.3137085 4.6862915,14 8,14 C11.3137085,14 14,11.3137085 14,8 C14,4.6862915 11.3137085,2 8,2 Z M11.5,7.5 C11.7761424,7.5 12,7.72385763 12,8 C12,8.24545989 11.8231248,8.44960837 11.5898756,8.49194433 L11.5,8.5 L4.5,8.5 C4.22385763,8.5 4,8.27614237 4,8 C4,7.75454011 4.17687516,7.55039163 4.41012437,7.50805567 L4.5,7.5 L11.5,7.5 Z" id="path-1"></path>
    </defs>
    <g id="icon/减少/按下" stroke="none" stroke-width="1" fill="none" fill-rule="evenodd">
        <rect fill="#FFFFFF" opacity="0" x="0" y="0" width="16" height="16"></rect>
        <g id="1-icon/01公共/delete">
            <mask id="mask-2" fill="white">
                <use xlink:href="#path-1"></use>
            </mask>
            <use id="形状结合" fill="#000000" fill-rule="nonzero" xlink:href="#path-1"></use>
            <g id="编组" mask="url(#mask-2)" fill="#0077FF">
                <g id="矩形">
                    <rect x="0" y="0" width="16" height="16"></rect>
                </g>
            </g>
        </g>
    </g>
</svg>