<?xml version="1.0" encoding="UTF-8"?>
<svg width="16px" height="16px" viewBox="0 0 16 16" version="1.1" xmlns="http://www.w3.org/2000/svg" xmlns:xlink="http://www.w3.org/1999/xlink">
    <title>icon/清除/hover</title>
    <defs>
        <path d="M8,1 C11.865625,1 15,4.134375 15,8 C15,11.865625 11.865625,15 8,15 C4.134375,15 1,11.865625 1,8 C1,4.134375 4.134375,1 8,1 Z M5.45587838,4.76016403 C5.26101024,4.62516798 4.99158584,4.64445313 4.81801948,4.81801948 C4.62275734,5.01328163 4.62275734,5.32986412 4.81801948,5.52512627 L4.81801948,5.52512627 L7.29257288,7.99957288 L4.81801948,10.4748737 L4.76016403,10.5441216 C4.62516798,10.7389898 4.64445313,11.0084142 4.81801948,11.1819805 C5.01328163,11.3772427 5.32986412,11.3772427 5.52512627,11.1819805 L5.52512627,11.1819805 L7.99957288,8.70657288 L10.4748737,11.1819805 L10.5441216,11.239836 C10.7389898,11.374832 11.0084142,11.3555469 11.1819805,11.1819805 C11.3772427,10.9867184 11.3772427,10.6701359 11.1819805,10.4748737 L11.1819805,10.4748737 L8.70657288,7.99957288 L11.1819805,5.52512627 L11.239836,5.45587838 C11.374832,5.26101024 11.3555469,4.99158584 11.1819805,4.81801948 C10.9867184,4.62275734 10.6701359,4.62275734 10.4748737,4.81801948 L10.4748737,4.81801948 L7.99957288,7.29257288 L5.52512627,4.81801948 Z" id="path-1"></path>
    </defs>
    <g id="icon/清除/hover" stroke="none" stroke-width="1" fill="none" fill-rule="evenodd">
        <rect fill="#FFFFFF" opacity="0" x="0" y="0" width="16" height="16"></rect>
        <g id="1-icon/01公共/clear">
            <mask id="mask-2" fill="white">
                <use xlink:href="#path-1"></use>
            </mask>
            <use id="形状结合" fill="#000000" xlink:href="#path-1"></use>
            <g id="编组" mask="url(#mask-2)" fill="#52A3FF">
                <g id="矩形">
                    <rect x="0" y="0" width="16" height="16"></rect>
                </g>
            </g>
        </g>
    </g>
</svg>