<?xml version="1.0" encoding="UTF-8"?>
<svg width="16px" height="16px" viewBox="0 0 16 16" version="1.1" xmlns="http://www.w3.org/2000/svg" xmlns:xlink="http://www.w3.org/1999/xlink">
    <title>icon/筛选/选中</title>
    <defs>
        <path d="M13.2714719,2 C13.4836451,2 13.6871282,2.08547259 13.8371573,2.23761478 C14.1012262,2.50540293 14.1460555,2.92047038 13.9183287,3.28653284 L13.9183287,3.28653284 L13.8370803,3.38499846 L9.994,7.27932394 L9.99573593,12.9859155 C9.99573593,13.5059744 9.60969574,13.9345988 9.11235706,13.9931775 L9.11235706,13.9931775 L8.99573593,14 C8.90097885,14 8.80670273,13.9863423 8.71573593,13.9594366 L8.71573593,13.9594366 L7.07573593,13.4743662 C6.43573593,13.2850704 5.99573593,12.6901408 5.99573594,12.014161 L5.99573594,12.014161 L5.995,7.27932394 L2.15431458,3.38492043 C2.06478327,3.29412812 1.99825158,3.18358269 1.95567399,3.03739288 L1.95567399,3.03739288 L1.92824711,2.92081891 L1.92,2.81126761 C1.92,2.43255797 2.17772154,2.10691537 2.59399887,2.01136528 L2.59399887,2.01136528 L2.72,2 Z M3.199,3.01002817 L6.84854168,6.71086356 C6.94229854,6.80593464 6.99497998,6.93487666 6.99499999,7.06933192 L6.99499999,7.06933192 L6.99573593,12.0140845 C6.99573593,12.2394366 7.1424026,12.4377465 7.35573593,12.5008451 L7.35573593,12.5008451 L8.99573593,12.9859155 L8.995,7.06947241 C8.99498327,6.93493604 9.04769285,6.80590828 9.14152357,6.71079741 L9.14152357,6.71079741 L12.792,3.01408451 L3.199,3.01002817 Z M13.4957359,11.5 C13.7718783,11.5 13.9957359,11.7238576 13.9957359,12 C13.9957359,12.2454599 13.8188608,12.4496084 13.5856116,12.4919443 L13.4957359,12.5 L10.9957359,12.5 C10.7195936,12.5 10.4957359,12.2761424 10.4957359,12 C10.4957359,11.7545401 10.6726111,11.5503916 10.9058603,11.5080557 L10.9957359,11.5 L13.4957359,11.5 Z M13.4957359,9.5 C13.7718783,9.5 13.9957359,9.72385763 13.9957359,10 C13.9957359,10.2454599 13.8188608,10.4496084 13.5856116,10.4919443 L13.4957359,10.5 L10.9957359,10.5 C10.7195936,10.5 10.4957359,10.2761424 10.4957359,10 C10.4957359,9.75454011 10.6726111,9.55039163 10.9058603,9.50805567 L10.9957359,9.5 L13.4957359,9.5 Z M13.4957359,7.5 C13.7718783,7.5 13.9957359,7.72385763 13.9957359,8 C13.9957359,8.24545989 13.8188608,8.44960837 13.5856116,8.49194433 L13.4957359,8.5 L10.9957359,8.5 C10.7195936,8.5 10.4957359,8.27614237 10.4957359,8 C10.4957359,7.75454011 10.6726111,7.55039163 10.9058603,7.50805567 L10.9957359,7.5 L13.4957359,7.5 Z" id="path-1"></path>
    </defs>
    <g id="icon/筛选/选中" stroke="none" stroke-width="1" fill="none" fill-rule="evenodd">
        <rect fill="#FFFFFF" opacity="0" x="0" y="0" width="16" height="16"></rect>
        <g id="1-icon/01公共/screening备份-4">
            <mask id="mask-2" fill="white">
                <use xlink:href="#path-1"></use>
            </mask>
            <use id="形状结合" fill="#000000" fill-rule="nonzero" xlink:href="#path-1"></use>
            <g id="编组" mask="url(#mask-2)" fill="#0077FF">
                <g id="矩形">
                    <rect x="0" y="0" width="16" height="16"></rect>
                </g>
            </g>
        </g>
    </g>
</svg>