<?xml version="1.0" encoding="UTF-8"?>
<svg width="16px" height="16px" viewBox="0 0 16 16" version="1.1" xmlns="http://www.w3.org/2000/svg" xmlns:xlink="http://www.w3.org/1999/xlink">
    <title>icon/删除/按下</title>
    <defs>
        <path d="M9.5,1 C10.2796961,1 10.9204487,1.59488808 10.9931334,2.35553999 L11,2.5 L11,3 L13.5,3 C13.7761424,3 14,3.22385763 14,3.5 C14,3.74545989 13.8231248,3.94960837 13.5898756,3.99194433 L13.5,4 L12.5,4 L12.5,13.5 C12.5,14.2796961 11.9051119,14.9204487 11.14446,14.9931334 L11,15 L5,15 C4.22030388,15 3.57955132,14.4051119 3.50686658,13.64446 L3.5,13.5 L3.5,4 L2.5,4 C2.22385763,4 2,3.77614237 2,3.5 C2,3.25454011 2.17687516,3.05039163 2.41012437,3.00805567 L2.5,3 L5,3 L5,2.5 C5,1.72030388 5.59488808,1.07955132 6.35553999,1.00686658 L6.5,1 L9.5,1 Z M11.5,4 L4.5,4 L4.5,13.5 C4.5,13.7454599 4.67687516,13.9496084 4.91012437,13.9919443 L5,14 L11,14 C11.2454599,14 11.4496084,13.8231248 11.4919443,13.5898756 L11.5,13.5 L11.5,4 Z M6.5,6 C6.74545989,6 6.94960837,6.17687516 6.99194433,6.41012437 L7,6.5 L7,11.5 C7,11.7761424 6.77614237,12 6.5,12 C6.25454011,12 6.05039163,11.8231248 6.00805567,11.5898756 L6,11.5 L6,6.5 C6,6.22385763 6.22385763,6 6.5,6 Z M9.5,6 C9.74545989,6 9.94960837,6.17687516 9.99194433,6.41012437 L10,6.5 L10,11.5 C10,11.7761424 9.77614237,12 9.5,12 C9.25454011,12 9.05039163,11.8231248 9.00805567,11.5898756 L9,11.5 L9,6.5 C9,6.22385763 9.22385763,6 9.5,6 Z M9.5,2 L6.5,2 C6.25454011,2 6.05039163,2.17687516 6.00805567,2.41012437 L6,2.5 L6,3 L10,3 L10,2.5 C10,2.25454011 9.82312484,2.05039163 9.58987563,2.00805567 L9.5,2 Z" id="path-1"></path>
    </defs>
    <g id="icon/删除/按下" stroke="none" stroke-width="1" fill="none" fill-rule="evenodd">
        <rect fill="#FFFFFF" opacity="0" x="0" y="0" width="16" height="16"></rect>
        <g id="1-icon/01公共/delete">
            <mask id="mask-2" fill="white">
                <use xlink:href="#path-1"></use>
            </mask>
            <use id="形状结合" fill="#000000" fill-rule="nonzero" xlink:href="#path-1"></use>
            <g id="编组" mask="url(#mask-2)" fill="#0077FF">
                <g id="矩形">
                    <rect x="0" y="0" width="16" height="16"></rect>
                </g>
            </g>
        </g>
    </g>
</svg>