<?xml version="1.0" encoding="UTF-8"?>
<svg width="16px" height="16px" viewBox="0 0 16 16" version="1.1" xmlns="http://www.w3.org/2000/svg" xmlns:xlink="http://www.w3.org/1999/xlink">
    <title>icon/编辑/按下</title>
    <defs>
        <path d="M3.51608901,2.16565511 L3.70155646,2.16778194 L8.55164961,2.16774349 C8.73023029,2.15862142 8.89929134,2.24870418 8.99131948,2.40201788 C9.08334763,2.55533158 9.08334763,2.74689499 8.99131948,2.90020869 C8.89929134,3.05352239 8.73023029,3.14360514 8.55675106,3.13461328 L8.55675106,3.13461328 L3.94364566,3.13448287 C3.75690471,3.12493655 3.56974668,3.12722295 3.38329466,3.14132835 L3.42775106,3.13842568 L3.37522766,3.15155032 L3.31275106,3.18642568 L3.28858575,3.20994403 L3.25282192,3.24956439 L3.22475106,3.29542568 L3.20439632,3.36693206 L3.20275106,3.42161328 L3.20098987,12.5220976 L3.20675106,12.6344257 L3.22401632,12.6945521 L3.24690298,12.7421862 L3.28246173,12.7799026 L3.31475106,12.8084257 L3.35392867,12.8339925 L3.40206146,12.851257 L3.43658614,12.8594992 L3.48975106,12.8616133 L12.3317022,12.8632788 L12.4327511,12.8574257 L12.4558846,12.8547411 L12.5077007,12.8371499 L12.5556391,12.8098571 L12.5870404,12.7819026 L12.6380404,12.7259026 L12.6668316,12.6264138 L12.6687511,12.5806133 L12.6687522,7.3190848 C12.6674913,7.05168408 12.8841716,6.83461328 13.1517511,6.83461328 C13.4190569,6.83461328 13.6357511,7.05130746 13.6357511,7.31861328 L13.6357511,7.31861328 L13.6357511,12.5839451 C13.6267429,13.2595961 13.0871603,13.8082754 12.4087511,13.8286133 L12.4087511,13.8286133 L3.47927993,13.8286133 C3.13716869,13.8270004 2.81056846,13.685683 2.5744398,13.436624 C2.35904509,13.2044422 2.23793286,12.9003073 2.23475106,12.5826133 L2.23475106,12.5826133 L2.23475106,3.42654186 C2.23515144,2.86596984 2.60471624,2.37262735 3.14877868,2.21305707 C3.33002119,2.1722362 3.51608715,2.15699651 3.70155646,2.16778194 Z M12.8890814,2.36987666 C13.0788587,2.18556755 13.3814589,2.18777905 13.5685221,2.37484223 C13.7555853,2.56190541 13.7577968,2.86450562 13.5724617,3.05532396 L13.5724617,3.05532396 L7.18142069,9.4403499 C6.9916434,9.62465901 6.68904318,9.62244752 6.50198,9.43538434 C6.31491682,9.24832116 6.31270532,8.94572094 6.49804038,8.7549026 L6.49804038,8.7549026 Z" id="path-1"></path>
    </defs>
    <g id="icon/编辑/按下" stroke="none" stroke-width="1" fill="none" fill-rule="evenodd">
        <rect fill="#FFFFFF" opacity="0" x="0" y="0" width="16" height="16"></rect>
        <g id="1-icon/01公共/delete">
            <mask id="mask-2" fill="white">
                <use xlink:href="#path-1"></use>
            </mask>
            <use id="蒙版" fill="#8D98AA" fill-rule="nonzero" xlink:href="#path-1"></use>
            <g id="编组" mask="url(#mask-2)" fill="#0077FF">
                <g id="矩形">
                    <rect x="0" y="0" width="16" height="16"></rect>
                </g>
            </g>
        </g>
    </g>
</svg>